<svg id="svg" version="1.1" xmlns="http://www.w3.org/2000/svg" xmlns:xlink="http://www.w3.org/1999/xlink" width="400" height="282.6086956521739" viewBox="0, 0, 400,282.6086956521739"><g id="svgg"><path id="path0" d="M168.770 55.402 C 157.454 61.800,143.338 63.488,129.825 60.060 C 125.895 59.063,126.259 58.915,123.604 62.602 C 120.890 66.371,120.971 66.015,122.357 68.072 C 133.089 83.990,134.669 101.230,127.052 119.295 C 124.659 124.971,120.781 131.331,116.322 136.894 C 113.394 140.546,113.288 139.879,117.548 144.603 L 121.033 148.467 120.842 151.477 C 119.323 175.390,130.052 196.750,149.122 207.779 C 159.578 213.826,175.653 218.516,185.926 218.516 C 187.230 218.516,186.493 217.989,195.714 225.505 C 197.865 227.258,199.837 228.689,200.095 228.684 C 200.354 228.680,203.140 226.411,206.286 223.643 L 212.007 218.610 215.615 218.262 C 256.236 214.348,279.838 190.654,279.253 154.376 L 279.164 148.894 282.550 145.234 C 286.618 140.839,286.658 140.769,285.765 139.685 C 281.778 134.844,279.985 132.492,278.089 129.611 C 264.866 109.525,264.450 87.544,276.931 68.354 C 278.531 65.895,278.537 65.927,275.895 62.562 C 273.192 59.120,273.210 59.127,269.740 60.039 C 256.750 63.454,242.991 61.907,231.010 55.686 C 226.761 53.479,227.386 53.486,224.110 55.606 C 208.932 65.424,190.096 64.991,172.859 54.427 L 171.725 53.732 168.770 55.402 M173.509 61.615 C 189.161 71.246,209.055 71.612,224.150 62.548 C 227.611 60.470,227.403 60.502,229.070 61.776 C 236.309 67.303,251.085 69.597,265.361 67.410 C 269.502 66.776,269.359 66.677,268.145 69.341 C 259.883 87.471,258.898 107.636,265.620 121.053 C 266.144 122.099,266.572 123.084,266.572 123.244 C 266.572 123.588,133.257 123.661,133.044 123.317 C 132.971 123.198,133.291 122.212,133.755 121.126 C 140.834 104.584,140.403 86.642,132.544 70.722 C 131.445 68.496,130.599 66.621,130.664 66.556 C 130.729 66.492,132.045 66.678,133.589 66.971 C 147.894 69.684,163.460 67.397,170.247 61.587 C 171.418 60.585,171.840 60.589,173.509 61.615 M227.467 71.166 C 227.129 85.379,227.237 121.117,227.618 121.498 C 228.080 121.960,233.262 121.960,233.724 121.498 C 234.505 120.717,233.989 66.535,233.198 66.284 C 232.928 66.198,231.656 65.497,230.372 64.725 C 229.088 63.953,227.951 63.322,227.845 63.322 C 227.739 63.322,227.569 66.852,227.467 71.166 M178.786 66.787 C 178.711 66.983,178.683 71.212,178.724 76.186 L 178.799 85.230 188.674 85.304 C 196.386 85.362,198.598 85.300,198.775 85.021 C 199.076 84.547,199.068 71.766,198.767 71.290 C 198.620 71.059,197.481 70.821,195.732 70.656 C 190.575 70.171,184.727 68.771,181.031 67.137 C 179.208 66.331,178.975 66.294,178.786 66.787 M216.961 67.744 C 215.562 68.271,214.226 68.809,213.993 68.940 C 213.621 69.149,213.569 72.390,213.569 95.437 L 213.569 121.696 216.820 121.696 L 220.071 121.696 220.071 94.299 C 220.071 76.262,219.974 66.882,219.788 66.844 C 219.633 66.811,218.360 67.216,216.961 67.744 M155.336 69.182 C 152.660 69.772,141.542 69.837,137.310 69.286 C 133.726 68.820,133.695 68.837,134.537 70.748 C 136.632 75.503,137.505 78.085,139.077 84.173 L 139.388 85.378 149.199 85.304 L 159.011 85.230 159.011 77.032 L 159.011 68.834 158.163 68.790 C 157.696 68.766,156.424 68.942,155.336 69.182 M241.318 75.773 C 241.083 84.372,241.071 120.787,241.302 121.390 C 241.540 122.009,247.385 122.053,247.893 121.440 C 248.255 121.004,248.229 70.325,247.867 69.963 C 247.763 69.859,246.872 69.667,245.888 69.536 C 244.904 69.405,243.515 69.211,242.802 69.105 L 241.506 68.911 241.318 75.773 M261.767 69.551 C 260.756 69.664,259.143 69.772,258.183 69.790 C 255.280 69.845,255.548 67.187,255.548 95.935 C 255.548 115.177,255.628 121.239,255.887 121.498 C 256.315 121.926,263.345 121.975,263.606 121.552 C 263.703 121.395,263.441 120.415,263.025 119.373 C 257.651 105.941,258.557 86.882,265.292 71.651 C 266.449 69.037,266.432 69.026,261.767 69.551 M201.413 70.918 L 200.283 71.095 200.283 96.396 L 200.283 121.696 203.110 121.696 L 205.936 121.696 205.936 96.254 L 205.936 70.813 204.240 70.776 C 203.307 70.756,202.035 70.820,201.413 70.918 M140.254 105.533 C 140.083 105.739,139.684 107.250,139.367 108.892 C 138.750 112.091,137.634 115.979,136.433 119.115 C 136.024 120.183,135.689 121.234,135.689 121.450 C 135.689 121.781,137.540 121.832,147.350 121.770 L 159.011 121.696 159.086 113.815 C 159.139 108.237,159.067 105.821,158.839 105.547 C 158.374 104.987,140.718 104.973,140.254 105.533 M178.829 105.606 C 178.571 106.277,178.631 121.075,178.893 121.488 C 179.070 121.767,181.254 121.829,188.853 121.771 L 198.587 121.696 198.662 113.428 L 198.736 105.159 188.868 105.159 C 180.131 105.159,178.981 105.210,178.829 105.606 M201.189 126.786 C 204.076 127.643,205.335 129.842,203.609 131.015 C 202.296 131.907,201.987 131.908,200.938 131.025 C 197.675 128.279,193.880 131.402,194.285 136.500 C 194.593 140.372,198.194 142.301,201.044 140.120 L 202.088 139.321 203.376 140.076 C 206.825 142.097,201.147 146.003,196.563 144.763 C 188.871 142.681,188.383 129.456,195.901 126.832 C 197.528 126.264,199.376 126.248,201.189 126.786 M182.756 128.622 L 182.756 130.177 178.375 130.318 L 173.993 130.459 173.993 131.873 L 173.993 133.286 176.396 133.428 L 178.799 133.569 178.883 135.327 C 178.979 137.355,179.017 137.329,175.830 137.454 L 173.993 137.527 173.913 140.908 C 173.823 144.696,173.808 144.724,171.825 144.731 C 169.438 144.738,169.611 145.435,169.611 135.847 C 169.611 131.148,169.698 127.216,169.805 127.109 C 169.911 127.003,172.869 126.950,176.377 126.991 L 182.756 127.067 182.756 128.622 M226.860 127.816 C 228.756 129.481,229.269 131.937,228.154 134.018 L 227.615 135.023 228.404 136.198 C 230.146 138.793,229.518 142.064,226.906 144.002 C 225.944 144.716,216.027 145.084,215.245 144.435 C 214.818 144.081,214.612 127.531,215.029 127.114 C 215.133 127.011,217.609 126.926,220.532 126.926 L 225.846 126.926 226.860 127.816 M218.704 130.224 C 218.601 130.327,218.516 131.091,218.516 131.920 L 218.516 133.428 221.336 133.428 C 224.488 133.428,225.310 132.937,224.900 131.299 C 224.632 130.234,219.572 129.356,218.704 130.224 M218.600 137.173 C 218.241 137.646,218.177 140.245,218.511 140.777 C 218.944 141.466,224.314 141.324,225.033 140.605 C 225.898 139.740,226.009 138.492,225.302 137.593 C 224.611 136.714,219.205 136.375,218.600 137.173 M271.791 148.326 C 272.949 152.938,272.237 164.322,270.354 171.307 C 263.259 197.631,239.871 210.991,200.848 211.012 C 159.888 211.033,135.491 196.431,129.169 168.109 C 127.721 161.623,127.320 149.722,128.486 147.836 C 128.595 147.660,154.269 147.562,200.127 147.562 L 271.599 147.562 271.791 148.326 M190.954 149.214 L 189.823 149.399 189.747 155.406 C 189.662 162.127,189.585 161.907,191.651 160.853 C 196.395 158.433,203.345 158.512,208.518 161.045 C 209.353 161.454,210.095 161.731,210.166 161.660 C 210.377 161.449,210.393 149.521,210.182 149.310 C 209.931 149.059,192.438 148.972,190.954 149.214 M231.425 149.208 C 230.870 149.316,230.678 205.309,231.232 205.651 C 232.890 206.676,251.143 197.883,251.706 195.788 C 251.920 194.991,251.911 150.701,251.696 149.901 L 251.528 149.272 241.712 149.194 C 236.313 149.152,231.684 149.158,231.425 149.208 M148.885 149.443 C 148.503 149.825,148.661 195.470,149.046 195.963 C 150.871 198.302,167.446 206.078,169.184 205.411 C 169.566 205.265,169.606 202.093,169.542 177.323 L 169.470 149.399 159.273 149.325 C 153.665 149.284,148.990 149.337,148.885 149.443 M195.336 160.735 C 190.554 162.011,189.525 163.095,188.229 168.222 C 186.799 173.876,188.663 180.845,191.958 182.164 C 196.071 183.809,200.658 180.565,198.201 177.748 C 195.703 174.886,195.388 171.704,197.323 168.892 C 198.338 167.417,198.337 167.431,197.459 165.895 C 196.648 164.476,196.560 163.164,197.194 161.939 C 197.619 161.116,197.577 160.262,197.111 160.301 C 196.990 160.312,196.191 160.507,195.336 160.735 M199.071 161.198 C 196.659 163.717,198.127 166.784,201.745 166.784 C 207.165 166.784,212.667 169.902,216.586 175.194 C 218.440 177.697,218.694 176.605,217.245 172.364 C 214.559 164.506,202.814 157.290,199.071 161.198 M185.747 166.714 C 181.740 171.385,179.980 181.843,182.658 185.070 C 183.487 186.069,186.602 185.226,188.339 183.533 C 189.638 182.267,189.640 182.423,188.292 179.657 C 186.239 175.445,186.027 171.352,187.584 166.007 C 187.903 164.910,186.994 165.260,185.747 166.714 M198.959 168.693 C 196.662 171.162,196.615 173.760,198.815 176.735 C 199.599 177.796,199.953 177.867,201.337 177.239 C 204.209 175.935,206.637 176.986,208.073 180.153 C 208.441 180.963,208.769 181.670,208.804 181.725 C 208.839 181.780,209.735 181.848,210.794 181.878 C 213.119 181.942,214.741 182.739,215.871 184.370 C 216.853 185.787,217.144 185.641,217.719 183.443 C 218.630 179.961,217.445 177.251,213.155 173.002 C 208.749 168.638,201.154 166.333,198.959 168.693 M201.472 178.400 C 200.883 178.711,200.283 179.273,200.140 179.649 C 198.882 182.958,194.912 184.900,192.282 183.493 C 191.245 182.938,190.500 183.155,189.086 184.426 C 187.741 185.636,185.710 186.572,184.432 186.572 C 183.064 186.572,184.401 189.500,186.806 191.768 L 187.668 192.581 190.866 192.435 C 198.296 192.096,204.823 188.782,207.058 184.214 C 208.893 180.463,205.081 176.495,201.472 178.400 M209.416 183.089 C 209.154 183.158,208.531 183.939,208.033 184.823 C 205.433 189.439,199.408 192.807,192.391 193.569 C 190.053 193.822,189.783 194.239,191.417 195.073 C 199.742 199.320,210.152 196.612,215.278 188.864 C 217.255 185.878,213.366 182.047,209.416 183.089 M189.812 195.970 C 189.734 196.172,189.705 199.196,189.747 202.689 L 189.823 209.039 191.237 209.280 C 192.858 209.557,208.859 209.612,209.703 209.344 C 210.539 209.079,210.639 208.221,210.567 201.944 C 210.489 195.066,210.579 195.297,208.367 196.290 C 202.766 198.804,196.217 198.746,191.019 196.136 C 190.188 195.719,189.922 195.682,189.812 195.970 " stroke="none" fill="#f7f7f7" fill-rule="evenodd"></path></g></svg>