<?xml version="1.0" encoding="UTF-8"?>
<!DOCTYPE svg PUBLIC "-//W3C//DTD SVG 1.1//EN" "http://www.w3.org/Graphics/SVG/1.1/DTD/svg11.dtd">
<svg xmlns="http://www.w3.org/2000/svg" version="1.1" width="531px" height="174px" style="shape-rendering:geometricPrecision; text-rendering:geometricPrecision; image-rendering:optimizeQuality; fill-rule:evenodd; clip-rule:evenodd" xmlns:xlink="http://www.w3.org/1999/xlink">
<g><path style="opacity:0.983" fill="#dfa944" d="M 261.5,0.5 C 262.833,0.5 264.167,0.5 265.5,0.5C 264.698,5.93155 264.032,11.4316 263.5,17C 263.514,18.3847 263.848,19.5514 264.5,20.5C 265.644,23.5665 264.977,26.2332 262.5,28.5C 263.231,26.4012 263.231,24.4012 262.5,22.5C 261.309,25.6638 259.975,28.6638 258.5,31.5C 260.405,21.2596 261.405,10.9263 261.5,0.5 Z"/></g>
<g><path style="opacity:0.851" fill="#f1deab" d="M 207.5,6.5 C 200.14,7.53286 197.806,11.5329 200.5,18.5C 195.766,13.1695 196.766,9.00285 203.5,6C 205.066,5.23502 206.399,5.40168 207.5,6.5 Z"/></g>
<g><path style="opacity:0.999" fill="#f2e0a7" d="M 254.5,-0.5 C 255.167,-0.5 255.833,-0.5 256.5,-0.5C 256.285,3.50125 256.952,7.33458 258.5,11C 256.727,14.059 254.06,15.8924 250.5,16.5C 250.5,15.5 250.5,14.5 250.5,13.5C 251.222,13.9175 251.722,14.5842 252,15.5C 253.803,10.3177 254.636,4.98432 254.5,-0.5 Z"/></g>
<g><path style="opacity:1" fill="#e2b657" d="M 281.5,2.5 C 282.791,2.26269 283.791,2.59603 284.5,3.5C 284.5,4.83333 284.5,6.16667 284.5,7.5C 282.118,10.9971 280.118,14.6638 278.5,18.5C 277.798,17.8843 276.798,17.8843 275.5,18.5C 270.552,20.2456 269.218,23.5789 271.5,28.5C 270.041,28.4326 268.708,28.7659 267.5,29.5C 268.644,25.6404 269.311,21.6404 269.5,17.5C 271.5,17.5 273.5,17.5 275.5,17.5C 275.617,15.5165 274.95,13.8498 273.5,12.5C 274.246,11.2638 274.579,9.93047 274.5,8.5C 279.931,9.90641 282.265,7.90641 281.5,2.5 Z"/></g>
<g><path style="opacity:0.122" fill="#eeddb4" d="M 265.5,0.5 C 267.38,1.07819 268.38,2.41152 268.5,4.5C 267.979,6.52404 267.812,8.52404 268,10.5C 269.711,8.04379 271.044,5.37712 272,2.5C 272.671,1.74756 273.504,1.41423 274.5,1.5C 274.662,3.5273 274.495,5.5273 274,7.5C 271.674,10.4838 270.174,13.8171 269.5,17.5C 268.33,19.2785 266.664,20.2785 264.5,20.5C 263.848,19.5514 263.514,18.3847 263.5,17C 264.032,11.4316 264.698,5.93155 265.5,0.5 Z"/></g>
<g><path style="opacity:1" fill="#e9b53d" d="M 208.5,9.5 C 209.167,11.8333 209.833,14.1667 210.5,16.5C 209.908,19.1272 209.575,21.7938 209.5,24.5C 205.275,22.7658 202.609,19.5991 201.5,15C 202.404,10.7826 204.738,8.94926 208.5,9.5 Z"/></g>
<g><path style="opacity:1" fill="#e5be65" d="M 233.5,9.5 C 235.011,11.8604 236.344,14.3604 237.5,17C 238.833,17.6667 240.167,17.6667 241.5,17C 242.103,14.9286 243.436,13.7619 245.5,13.5C 242.84,19.5322 238.674,20.8655 233,17.5C 232.023,15.26 231.523,12.9267 231.5,10.5C 229.784,10.6287 228.117,10.962 226.5,11.5C 226.5,10.1667 226.5,8.83333 226.5,7.5C 229.188,7.1658 231.521,7.83247 233.5,9.5 Z"/></g>
<g><path style="opacity:1" fill="#ebcc7b" d="M 274.5,1.5 C 276.764,2.21862 279.097,2.55195 281.5,2.5C 282.265,7.90641 279.931,9.90641 274.5,8.5C 274.579,9.93047 274.246,11.2638 273.5,12.5C 274.95,13.8498 275.617,15.5165 275.5,17.5C 273.5,17.5 271.5,17.5 269.5,17.5C 270.174,13.8171 271.674,10.4838 274,7.5C 274.495,5.5273 274.662,3.5273 274.5,1.5 Z"/></g>
<g><path style="opacity:1" fill="#e8c673" d="M 256.5,-0.5 C 258.167,-0.5 259.833,-0.5 261.5,-0.5C 261.5,-0.166667 261.5,0.166667 261.5,0.5C 261.405,10.9263 260.405,21.2596 258.5,31.5C 258.5,32.1667 258.5,32.8333 258.5,33.5C 257.288,34.2299 256.288,35.2299 255.5,36.5C 254.5,36 253.5,35.5 252.5,35C 251.556,32.2809 251.223,29.4475 251.5,26.5C 251.5,26.1667 251.5,25.8333 251.5,25.5C 252.622,23.7116 252.789,21.7116 252,19.5C 249.978,17.6066 248.812,15.2733 248.5,12.5C 249.167,12.8333 249.833,13.1667 250.5,13.5C 250.5,14.5 250.5,15.5 250.5,16.5C 254.06,15.8924 256.727,14.059 258.5,11C 256.952,7.33458 256.285,3.50125 256.5,-0.5 Z"/></g>
<g><path style="opacity:1" fill="#e3c47f" d="M 284.5,7.5 C 282.874,14.1881 280.874,20.6881 278.5,27C 284.441,25.4409 289.108,21.7742 292.5,16C 294.463,15.1558 295.796,15.6558 296.5,17.5C 293.099,16.2266 291.766,17.56 292.5,21.5C 291.325,21.281 290.325,21.6143 289.5,22.5C 287.434,27.6319 285.101,32.6319 282.5,37.5C 282.167,37.5 281.833,37.5 281.5,37.5C 279.952,37.1788 279.285,36.1788 279.5,34.5C 280.234,33.2921 280.567,31.9587 280.5,30.5C 277.879,30.5228 276.545,29.1895 276.5,26.5C 277.378,23.8702 278.045,21.2035 278.5,18.5C 280.118,14.6638 282.118,10.9971 284.5,7.5 Z"/></g>
<g><path style="opacity:0.886" fill="#efd99e" d="M 183.5,23.5 C 180.956,23.1043 178.789,23.771 177,25.5C 176.288,28.4376 176.788,31.1043 178.5,33.5C 172.638,28.4736 173.304,24.4736 180.5,21.5C 182.03,21.6399 183.03,22.3065 183.5,23.5 Z"/></g>
<g><path style="opacity:0.192" fill="#f7edcd" d="M 253.5,-0.5 C 253.833,-0.5 254.167,-0.5 254.5,-0.5C 254.636,4.98432 253.803,10.3177 252,15.5C 251.722,14.5842 251.222,13.9175 250.5,13.5C 249.833,13.1667 249.167,12.8333 248.5,12.5C 247.053,11.1148 246.053,11.4482 245.5,13.5C 243.436,13.7619 242.103,14.9286 241.5,17C 240.167,17.6667 238.833,17.6667 237.5,17C 236.344,14.3604 235.011,11.8604 233.5,9.5C 232.105,5.88877 229.605,4.88877 226,6.5C 225.51,7.79323 225.343,9.12656 225.5,10.5C 222.475,10.1231 219.475,9.95646 216.5,10C 215.594,11.6995 215.261,13.5328 215.5,15.5C 214.022,15.762 212.689,15.4287 211.5,14.5C 211.043,12.4024 210.043,10.7358 208.5,9.5C 208.443,8.39105 208.11,7.39105 207.5,6.5C 206.399,5.40168 205.066,5.23502 203.5,6C 196.766,9.00285 195.766,13.1695 200.5,18.5C 201.807,20.2232 201.807,22.0565 200.5,24C 195.315,24.5926 190.981,26.7593 187.5,30.5C 186.431,28.0313 185.098,25.6979 183.5,23.5C 183.03,22.3065 182.03,21.6399 180.5,21.5C 173.304,24.4736 172.638,28.4736 178.5,33.5C 178.328,34.4916 178.662,35.1583 179.5,35.5C 179.727,38.5767 180.727,41.4101 182.5,44C 180.693,47.3137 180.193,50.8137 181,54.5C 182.802,55.7893 183.969,57.4559 184.5,59.5C 183.549,60.9187 183.216,62.5853 183.5,64.5C 182.691,62.7078 182.191,60.7078 182,58.5C 180.287,57.1218 178.953,55.4552 178,53.5C 177.511,49.3034 177.845,45.3034 179,41.5C 174.968,36.4592 172.968,30.7926 173,24.5C 175.11,18.6972 178.943,17.1972 184.5,20C 185.726,21.6349 187.059,23.1349 188.5,24.5C 190.925,22.8555 193.592,21.6888 196.5,21C 197.059,20.2753 197.392,19.4419 197.5,18.5C 195.948,15.6651 195.281,12.8318 195.5,10C 203.946,0.347486 209.946,1.51415 213.5,13.5C 214.23,11.6587 214.897,9.82541 215.5,8C 218.167,7.66667 220.833,7.33333 223.5,7C 225.94,1.89609 229.273,1.22942 233.5,5C 236.037,7.90631 238.204,11.073 240,14.5C 241.167,11.3333 243.333,9.16667 246.5,8C 248.367,7.28885 249.867,7.78885 251,9.5C 251.529,6.05261 252.362,2.71927 253.5,-0.5 Z"/></g>
<g><path style="opacity:0.361" fill="#f0dda7" d="M 233.5,9.5 C 231.521,7.83247 229.188,7.1658 226.5,7.5C 226.5,8.83333 226.5,10.1667 226.5,11.5C 223.167,11.5 219.833,11.5 216.5,11.5C 216.5,13.1667 216.5,14.8333 216.5,16.5C 214.5,16.5 212.5,16.5 210.5,16.5C 209.833,14.1667 209.167,11.8333 208.5,9.5C 210.043,10.7358 211.043,12.4024 211.5,14.5C 212.689,15.4287 214.022,15.762 215.5,15.5C 215.261,13.5328 215.594,11.6995 216.5,10C 219.475,9.95646 222.475,10.1231 225.5,10.5C 225.343,9.12656 225.51,7.79323 226,6.5C 229.605,4.88877 232.105,5.88877 233.5,9.5 Z"/></g>
<g><path style="opacity:1" fill="#d08d25" d="M 278.5,18.5 C 278.045,21.2035 277.378,23.8702 276.5,26.5C 276.545,29.1895 277.879,30.5228 280.5,30.5C 280.567,31.9587 280.234,33.2921 279.5,34.5C 278.025,36.0066 276.691,37.6732 275.5,39.5C 276.038,37.8828 276.371,36.2161 276.5,34.5C 275.07,34.4208 273.736,34.7542 272.5,35.5C 271.3,38.59 269.467,41.2566 267,43.5C 265.644,42.6198 264.144,42.2865 262.5,42.5C 267.864,39.8234 271.364,35.49 273,29.5C 273.003,25.533 273.836,21.8663 275.5,18.5C 276.798,17.8843 277.798,17.8843 278.5,18.5 Z"/></g>
<g><path style="opacity:0.125" fill="#f2e7c6" d="M 284.5,3.5 C 286.359,3.46091 287.692,4.29424 288.5,6C 285.837,11.3211 284.004,16.8211 283,22.5C 285.811,17.8462 289.645,14.5129 294.5,12.5C 297.599,12.643 299.432,14.3097 300,17.5C 304.126,19.2977 306.293,22.4643 306.5,27C 304.617,31.2648 302.617,35.4315 300.5,39.5C 300.167,39.5 299.833,39.5 299.5,39.5C 300.758,35.1539 302.424,30.9873 304.5,27C 303.579,22.304 300.912,19.1373 296.5,17.5C 295.796,15.6558 294.463,15.1558 292.5,16C 289.108,21.7742 284.441,25.4409 278.5,27C 280.874,20.6881 282.874,14.1881 284.5,7.5C 284.5,6.16667 284.5,4.83333 284.5,3.5 Z"/></g>
<g><path style="opacity:1" fill="#d2871a" d="M 251.5,25.5 C 251.5,25.8333 251.5,26.1667 251.5,26.5C 250.844,27.2778 250.011,27.9444 249,28.5C 246.566,27.6777 244.066,27.3444 241.5,27.5C 239.815,26.8163 238.815,25.483 238.5,23.5C 240.842,20.8621 243.342,20.8621 246,23.5C 247.766,22.7665 249.599,22.4332 251.5,22.5C 251.5,23.5 251.5,24.5 251.5,25.5 Z"/></g>
<g><path style="opacity:1" fill="#f1ce6e" d="M 183.5,23.5 C 185.098,25.6979 186.431,28.0313 187.5,30.5C 184.451,27.5222 182.785,28.1889 182.5,32.5C 181.5,32.5 180.5,32.5 179.5,32.5C 179.5,33.5 179.5,34.5 179.5,35.5C 178.662,35.1583 178.328,34.4916 178.5,33.5C 176.788,31.1043 176.288,28.4376 177,25.5C 178.789,23.771 180.956,23.1043 183.5,23.5 Z"/></g>
<g><path style="opacity:1" fill="#ecc96e" d="M 207.5,6.5 C 208.11,7.39105 208.443,8.39105 208.5,9.5C 204.738,8.94926 202.404,10.7826 201.5,15C 202.609,19.5991 205.275,22.7658 209.5,24.5C 209.575,21.7938 209.908,19.1272 210.5,16.5C 212.5,16.5 214.5,16.5 216.5,16.5C 216.5,14.8333 216.5,13.1667 216.5,11.5C 219.833,11.5 223.167,11.5 226.5,11.5C 224.052,12.4731 221.385,12.8064 218.5,12.5C 218.819,17.9021 219.319,23.2355 220,28.5C 219.751,29.624 219.251,30.624 218.5,31.5C 216.949,30.1996 215.949,28.5329 215.5,26.5C 215.5,23.8333 215.5,21.1667 215.5,18.5C 214.5,18.5 213.5,18.5 212.5,18.5C 212.5,21.8333 212.5,25.1667 212.5,28.5C 209.126,27.2104 205.626,26.2104 202,25.5C 200.133,26.3767 198.966,27.8767 198.5,30C 197.167,30.3333 195.833,30.6667 194.5,31C 193.748,31.6708 193.414,32.5041 193.5,33.5C 191.801,33.6602 190.134,33.4935 188.5,33C 187.748,32.3292 187.414,31.4959 187.5,30.5C 190.981,26.7593 195.315,24.5926 200.5,24C 201.807,22.0565 201.807,20.2232 200.5,18.5C 197.806,11.5329 200.14,7.53286 207.5,6.5 Z"/></g>
<g><path style="opacity:1" fill="#e5c57c" d="M 269.5,17.5 C 269.311,21.6404 268.644,25.6404 267.5,29.5C 265.72,30.9899 265.054,32.9899 265.5,35.5C 264.5,35.5 263.5,35.5 262.5,35.5C 262.5,33.8333 262.5,32.1667 262.5,30.5C 262.5,29.8333 262.5,29.1667 262.5,28.5C 264.977,26.2332 265.644,23.5665 264.5,20.5C 266.664,20.2785 268.33,19.2785 269.5,17.5 Z"/></g>
<g><path style="opacity:1" fill="#d7a035" d="M 245.5,13.5 C 246.053,11.4482 247.053,11.1148 248.5,12.5C 248.812,15.2733 249.978,17.6066 252,19.5C 252.789,21.7116 252.622,23.7116 251.5,25.5C 251.5,24.5 251.5,23.5 251.5,22.5C 249.599,22.4332 247.766,22.7665 246,23.5C 243.342,20.8621 240.842,20.8621 238.5,23.5C 238.815,25.483 239.815,26.8163 241.5,27.5C 245.989,30.2851 246.656,33.9517 243.5,38.5C 245.722,43.6114 247.056,48.9448 247.5,54.5C 245.599,49.6708 243.933,44.6708 242.5,39.5C 242.833,35.1667 240.833,33.1667 236.5,33.5C 236.085,35.7468 235.418,37.9135 234.5,40C 236.049,46.7851 236.883,53.6185 237,60.5C 236.292,59.6195 235.458,58.9528 234.5,58.5C 234.5,58.1667 234.5,57.8333 234.5,57.5C 232.973,51.4361 231.14,45.4361 229,39.5C 228.502,36.1832 228.335,32.8499 228.5,29.5C 227.5,29.5 226.5,29.5 225.5,29.5C 225.649,28.448 225.483,27.448 225,26.5C 224.565,31.0848 222.565,34.7514 219,37.5C 217.133,36.6233 215.966,35.1233 215.5,33C 213.098,32.1859 210.765,32.3526 208.5,33.5C 208.921,37.7798 209.921,41.7798 211.5,45.5C 211.306,51.5642 210.639,57.5642 209.5,63.5C 208.467,60.014 207.633,56.3474 207,52.5C 206.617,51.944 206.117,51.6107 205.5,51.5C 204.165,47.8285 202.832,44.1618 201.5,40.5C 201.033,37.9601 200.033,35.6268 198.5,33.5C 199.651,31.6746 200.318,29.6746 200.5,27.5C 204.279,27.4698 207.779,28.4698 211,30.5C 212.715,29.3955 214.215,28.0622 215.5,26.5C 215.949,28.5329 216.949,30.1996 218.5,31.5C 219.251,30.624 219.751,29.624 220,28.5C 219.319,23.2355 218.819,17.9021 218.5,12.5C 221.385,12.8064 224.052,12.4731 226.5,11.5C 228.117,10.962 229.784,10.6287 231.5,10.5C 231.523,12.9267 232.023,15.26 233,17.5C 238.674,20.8655 242.84,19.5322 245.5,13.5 Z"/></g>
<g><path style="opacity:1" fill="#e4c89b" d="M 226.5,19.5 C 227.496,19.4142 228.329,19.7476 229,20.5C 229.495,22.4727 229.662,24.4727 229.5,26.5C 225.659,25.5158 224.659,23.1825 226.5,19.5 Z"/></g>
<g><path style="opacity:1" fill="#bf8123" d="M 301.5,23.5 C 302.652,27.5902 301.652,31.2568 298.5,34.5C 297.034,35.347 296.2,36.6803 296,38.5C 295.173,42.5411 295.34,46.5411 296.5,50.5C 298.59,48.7531 300.257,46.7531 301.5,44.5C 302.5,43.1667 303.5,41.8333 304.5,40.5C 307.247,40.1866 309.914,40.52 312.5,41.5C 310.667,43.8333 308.833,46.1667 307,48.5C 305.869,51.4453 305.036,54.4453 304.5,57.5C 304.518,60.149 304.518,62.8157 304.5,65.5C 307.309,61.9287 310.975,60.262 315.5,60.5C 314.833,62.5 314.167,64.5 313.5,66.5C 306.702,65.895 301.369,68.2283 297.5,73.5C 296.167,73.5 294.833,73.5 293.5,73.5C 293.663,71.1432 293.497,68.8098 293,66.5C 292.439,65.9781 291.772,65.6448 291,65.5C 288.522,67.9782 286.022,70.4782 283.5,73C 280.975,73.4238 278.975,74.5905 277.5,76.5C 277.167,76.5 276.833,76.5 276.5,76.5C 269.464,76.3473 267.63,73.014 271,66.5C 272.741,65.2423 274.574,64.2423 276.5,63.5C 274.774,65.8201 274.107,68.4867 274.5,71.5C 277.862,71.9305 280.695,70.9305 283,68.5C 282.879,65.9223 283.046,63.4223 283.5,61C 285.328,59.3371 286.995,57.5038 288.5,55.5C 287.675,54.6143 286.675,54.281 285.5,54.5C 284.167,54.5 282.833,54.5 281.5,54.5C 282.442,49.9485 284.442,45.9485 287.5,42.5C 288.404,41.791 288.737,40.791 288.5,39.5C 286.143,39.3367 283.81,39.5034 281.5,40C 280.763,42.9009 279.097,45.0675 276.5,46.5C 278.351,43.6223 280.018,40.6223 281.5,37.5C 281.833,37.5 282.167,37.5 282.5,37.5C 286.313,33.4862 289.813,29.1529 293,24.5C 294.11,22.9632 295.61,22.2965 297.5,22.5C 296.804,25.5536 295.304,28.2202 293,30.5C 291.795,32.5342 291.628,34.5342 292.5,36.5C 296.208,32.7655 299.208,28.4321 301.5,23.5 Z"/></g>
<g><path style="opacity:1" fill="#d7a84c" d="M 296.5,17.5 C 296.687,20.6905 298.354,22.6905 301.5,23.5C 299.208,28.4321 296.208,32.7655 292.5,36.5C 291.628,34.5342 291.795,32.5342 293,30.5C 295.304,28.2202 296.804,25.5536 297.5,22.5C 295.61,22.2965 294.11,22.9632 293,24.5C 289.813,29.1529 286.313,33.4862 282.5,37.5C 285.101,32.6319 287.434,27.6319 289.5,22.5C 290.325,21.6143 291.325,21.281 292.5,21.5C 291.766,17.56 293.099,16.2266 296.5,17.5 Z"/></g>
<g><path style="opacity:1" fill="#e9be51" d="M 215.5,26.5 C 214.215,28.0622 212.715,29.3955 211,30.5C 207.779,28.4698 204.279,27.4698 200.5,27.5C 200.318,29.6746 199.651,31.6746 198.5,33.5C 200.033,35.6268 201.033,37.9601 201.5,40.5C 200.15,39.5169 199.15,38.1836 198.5,36.5C 197.702,36.9569 197.369,37.6236 197.5,38.5C 196.835,36.6309 196.169,34.6309 195.5,32.5C 194.817,32.8627 194.15,33.1961 193.5,33.5C 193.414,32.5041 193.748,31.6708 194.5,31C 195.833,30.6667 197.167,30.3333 198.5,30C 198.966,27.8767 200.133,26.3767 202,25.5C 205.626,26.2104 209.126,27.2104 212.5,28.5C 212.5,25.1667 212.5,21.8333 212.5,18.5C 213.5,18.5 214.5,18.5 215.5,18.5C 215.5,21.1667 215.5,23.8333 215.5,26.5 Z"/></g>
<g><path style="opacity:1" fill="#e2ab38" d="M 187.5,30.5 C 187.414,31.4959 187.748,32.3292 188.5,33C 190.134,33.4935 191.801,33.6602 193.5,33.5C 194.15,33.1961 194.817,32.8627 195.5,32.5C 196.169,34.6309 196.835,36.6309 197.5,38.5C 198.583,42.0845 199.249,45.7512 199.5,49.5C 198.463,48.0697 197.796,46.403 197.5,44.5C 197.244,42.2239 195.91,41.0572 193.5,41C 192.376,37.5781 190.209,35.0781 187,33.5C 186.333,34.8333 186.333,36.1667 187,37.5C 188.363,38.8928 189.196,40.5595 189.5,42.5C 187.939,47.4887 187.606,52.4887 188.5,57.5C 187.206,56.7101 186.039,55.7101 185,54.5C 186.415,47.149 184.582,40.8157 179.5,35.5C 179.5,34.5 179.5,33.5 179.5,32.5C 180.5,32.5 181.5,32.5 182.5,32.5C 182.785,28.1889 184.451,27.5222 187.5,30.5 Z"/></g>
<g><path style="opacity:0.282" fill="#e6d1ad" d="M 296.5,17.5 C 300.912,19.1373 303.579,22.304 304.5,27C 302.424,30.9873 300.758,35.1539 299.5,39.5C 299.833,40.8333 300.167,40.8333 300.5,39.5C 301.627,38.8783 302.627,38.045 303.5,37C 318.756,34.8433 321.089,39.5099 310.5,51C 313.573,51.6972 315.573,53.5305 316.5,56.5C 316.376,57.1067 316.043,57.44 315.5,57.5C 313.844,56.8535 312.177,56.1869 310.5,55.5C 309.416,55.685 308.416,56.0183 307.5,56.5C 306.624,56.6309 305.957,56.2975 305.5,55.5C 306.937,50.8835 309.437,46.8835 313,43.5C 313.49,42.2068 313.657,40.8734 313.5,39.5C 310.287,39.19 307.287,39.5233 304.5,40.5C 303.5,41.8333 302.5,43.1667 301.5,44.5C 300.211,46.248 298.711,46.5814 297,45.5C 296.687,41.7423 297.187,38.0757 298.5,34.5C 301.652,31.2568 302.652,27.5902 301.5,23.5C 298.354,22.6905 296.687,20.6905 296.5,17.5 Z"/></g>
<g><path style="opacity:1" fill="#d3a249" d="M 275.5,18.5 C 273.836,21.8663 273.003,25.533 273,29.5C 271.364,35.49 267.864,39.8234 262.5,42.5C 260.014,45.3865 259.014,44.7199 259.5,40.5C 259.806,37.4682 260.306,34.4682 261,31.5C 261.383,30.944 261.883,30.6107 262.5,30.5C 262.5,32.1667 262.5,33.8333 262.5,35.5C 263.5,35.5 264.5,35.5 265.5,35.5C 265.054,32.9899 265.72,30.9899 267.5,29.5C 268.708,28.7659 270.041,28.4326 271.5,28.5C 269.218,23.5789 270.552,20.2456 275.5,18.5 Z"/></g>
<g><path style="opacity:1" fill="#d6921e" d="M 197.5,44.5 C 195.097,44.607 193.264,43.607 192,41.5C 190.03,46.3426 189.364,51.3426 190,56.5C 190.626,58.9913 191.459,58.9913 192.5,56.5C 194.283,58.0225 194.949,60.0225 194.5,62.5C 193.5,62.5 192.5,62.5 191.5,62.5C 189.953,61.2318 188.953,59.5652 188.5,57.5C 187.606,52.4887 187.939,47.4887 189.5,42.5C 189.196,40.5595 188.363,38.8928 187,37.5C 186.333,36.1667 186.333,34.8333 187,33.5C 190.209,35.0781 192.376,37.5781 193.5,41C 195.91,41.0572 197.244,42.2239 197.5,44.5 Z"/></g>
<g><path style="opacity:1" fill="#d1a343" d="M 251.5,26.5 C 251.223,29.4475 251.556,32.2809 252.5,35C 253.5,35.5 254.5,36 255.5,36.5C 256.288,35.2299 257.288,34.2299 258.5,33.5C 257.2,37.0961 256.2,40.7627 255.5,44.5C 256.109,48.0053 254.942,50.672 252,52.5C 251.709,57.1893 251.709,61.856 252,66.5C 251.241,64.9371 250.074,63.9371 248.5,63.5C 246.204,63.1959 245.871,62.1959 247.5,60.5C 248.291,58.6907 248.291,56.6907 247.5,54.5C 247.056,48.9448 245.722,43.6114 243.5,38.5C 246.656,33.9517 245.989,30.2851 241.5,27.5C 244.066,27.3444 246.566,27.6777 249,28.5C 250.011,27.9444 250.844,27.2778 251.5,26.5 Z"/></g>
<g><path style="opacity:1" fill="#cb7b19" d="M 234.5,57.5 C 231.789,51.2058 228.789,45.0392 225.5,39C 225.167,38.8333 224.833,38.6667 224.5,38.5C 223.192,41.7063 222.525,45.0396 222.5,48.5C 220.824,47.8166 220.157,46.4832 220.5,44.5C 217.482,44.7038 214.482,45.0371 211.5,45.5C 209.921,41.7798 208.921,37.7798 208.5,33.5C 210.765,32.3526 213.098,32.1859 215.5,33C 215.966,35.1233 217.133,36.6233 219,37.5C 222.565,34.7514 224.565,31.0848 225,26.5C 225.483,27.448 225.649,28.448 225.5,29.5C 226.5,29.5 227.5,29.5 228.5,29.5C 228.335,32.8499 228.502,36.1832 229,39.5C 231.14,45.4361 232.973,51.4361 234.5,57.5 Z"/></g>
<g><path style="opacity:1" fill="#bf7720" d="M 262.5,28.5 C 262.5,29.1667 262.5,29.8333 262.5,30.5C 261.883,30.6107 261.383,30.944 261,31.5C 260.306,34.4682 259.806,37.4682 259.5,40.5C 259.014,44.7199 260.014,45.3865 262.5,42.5C 264.144,42.2865 265.644,42.6198 267,43.5C 269.467,41.2566 271.3,38.59 272.5,35.5C 273.736,34.7542 275.07,34.4208 276.5,34.5C 276.371,36.2161 276.038,37.8828 275.5,39.5C 272.036,42.6249 270.369,46.6249 270.5,51.5C 273.712,51.2876 275.712,49.6209 276.5,46.5C 279.097,45.0675 280.763,42.9009 281.5,40C 283.81,39.5034 286.143,39.3367 288.5,39.5C 288.737,40.791 288.404,41.791 287.5,42.5C 287.103,41.475 286.437,41.3083 285.5,42C 283.52,44.5029 281.187,46.3362 278.5,47.5C 278.5,48.5 278.5,49.5 278.5,50.5C 275.185,50.9717 272.851,52.805 271.5,56C 270.207,56.49 268.873,56.6567 267.5,56.5C 268.758,52.2376 269.258,47.9043 269,43.5C 265.676,45.3296 262.176,46.6629 258.5,47.5C 258.19,50.7131 258.523,53.7131 259.5,56.5C 259.5,57.1667 259.5,57.8333 259.5,58.5C 258.883,58.3893 258.383,58.056 258,57.5C 257.667,53.8333 257.333,50.1667 257,46.5C 256.722,45.5842 256.222,44.9175 255.5,44.5C 256.2,40.7627 257.2,37.0961 258.5,33.5C 258.5,32.8333 258.5,32.1667 258.5,31.5C 259.975,28.6638 261.309,25.6638 262.5,22.5C 263.231,24.4012 263.231,26.4012 262.5,28.5 Z"/></g>
<g><path style="opacity:1" fill="#b2550e" d="M 234.5,57.5 C 234.5,57.8333 234.5,58.1667 234.5,58.5C 235.729,62.3866 237.396,66.0532 239.5,69.5C 241.339,71.7898 241.672,74.1231 240.5,76.5C 237.463,71.9619 234.63,67.2953 232,62.5C 229.6,60.2707 227.433,57.9374 225.5,55.5C 225.075,52.8808 224.075,50.5475 222.5,48.5C 222.525,45.0396 223.192,41.7063 224.5,38.5C 224.833,38.6667 225.167,38.8333 225.5,39C 228.789,45.0392 231.789,51.2058 234.5,57.5 Z"/></g>
<g><path style="opacity:1" fill="#e9c779" d="M 179.5,35.5 C 184.582,40.8157 186.415,47.149 185,54.5C 186.039,55.7101 187.206,56.7101 188.5,57.5C 188.953,59.5652 189.953,61.2318 191.5,62.5C 191.5,63.1667 191.5,63.8333 191.5,64.5C 190.167,63.5 188.833,62.5 187.5,61.5C 186.833,61.1667 186.167,60.8333 185.5,60.5C 185.5,59.8333 185.167,59.5 184.5,59.5C 183.969,57.4559 182.802,55.7893 181,54.5C 180.193,50.8137 180.693,47.3137 182.5,44C 180.727,41.4101 179.727,38.5767 179.5,35.5 Z"/></g>
<g><path style="opacity:1" fill="#b15b0f" d="M 242.5,39.5 C 243.933,44.6708 245.599,49.6708 247.5,54.5C 248.291,56.6907 248.291,58.6907 247.5,60.5C 246.5,60.5 245.5,60.5 244.5,60.5C 243.791,59.596 242.791,59.2627 241.5,59.5C 241.113,52.2997 240.446,45.1331 239.5,38C 239.833,37.5 240.167,37 240.5,36.5C 241.176,37.6016 241.842,38.6016 242.5,39.5 Z"/></g>
<g><path style="opacity:0.71" fill="#cea671" d="M 298.5,34.5 C 297.187,38.0757 296.687,41.7423 297,45.5C 298.711,46.5814 300.211,46.248 301.5,44.5C 300.257,46.7531 298.59,48.7531 296.5,50.5C 295.34,46.5411 295.173,42.5411 296,38.5C 296.2,36.6803 297.034,35.347 298.5,34.5 Z"/></g>
<g><path style="opacity:0.867" fill="#c89d64" d="M 304.5,40.5 C 307.287,39.5233 310.287,39.19 313.5,39.5C 313.657,40.8734 313.49,42.2068 313,43.5C 309.437,46.8835 306.937,50.8835 305.5,55.5C 305.957,56.2975 306.624,56.6309 307.5,56.5C 306.791,57.404 305.791,57.7373 304.5,57.5C 305.036,54.4453 305.869,51.4453 307,48.5C 308.833,46.1667 310.667,43.8333 312.5,41.5C 309.914,40.52 307.247,40.1866 304.5,40.5 Z"/></g>
<g><path style="opacity:1" fill="#ce9d4c" d="M 279.5,34.5 C 279.285,36.1788 279.952,37.1788 281.5,37.5C 280.018,40.6223 278.351,43.6223 276.5,46.5C 275.712,49.6209 273.712,51.2876 270.5,51.5C 270.369,46.6249 272.036,42.6249 275.5,39.5C 276.691,37.6732 278.025,36.0066 279.5,34.5 Z"/></g>
<g><path style="opacity:1" fill="#ce7f1a" d="M 197.5,44.5 C 197.796,46.403 198.463,48.0697 199.5,49.5C 200.345,50.6715 201.011,52.0048 201.5,53.5C 201.5,54.5 201.5,55.5 201.5,56.5C 200.256,54.4072 198.756,52.4072 197,50.5C 196.667,50.8333 196.333,51.1667 196,51.5C 196.451,55.1123 196.951,58.779 197.5,62.5C 199.099,62.2322 200.432,62.5655 201.5,63.5C 199.265,63.2053 197.265,63.5386 195.5,64.5C 195.167,64.5 194.833,64.5 194.5,64.5C 193.5,64.5 192.5,64.5 191.5,64.5C 191.5,63.8333 191.5,63.1667 191.5,62.5C 192.5,62.5 193.5,62.5 194.5,62.5C 194.949,60.0225 194.283,58.0225 192.5,56.5C 191.459,58.9913 190.626,58.9913 190,56.5C 189.364,51.3426 190.03,46.3426 192,41.5C 193.264,43.607 195.097,44.607 197.5,44.5 Z"/></g>
<g><path style="opacity:1" fill="#ba791c" d="M 242.5,39.5 C 241.842,38.6016 241.176,37.6016 240.5,36.5C 240.167,37 239.833,37.5 239.5,38C 240.446,45.1331 241.113,52.2997 241.5,59.5C 242.791,59.2627 243.791,59.596 244.5,60.5C 243.594,63.4359 242.928,66.4359 242.5,69.5C 241.5,69.5 240.5,69.5 239.5,69.5C 237.396,66.0532 235.729,62.3866 234.5,58.5C 235.458,58.9528 236.292,59.6195 237,60.5C 236.883,53.6185 236.049,46.7851 234.5,40C 235.418,37.9135 236.085,35.7468 236.5,33.5C 240.833,33.1667 242.833,35.1667 242.5,39.5 Z"/></g>
<g><path style="opacity:1" fill="#e7c671" d="M 201.5,40.5 C 202.832,44.1618 204.165,47.8285 205.5,51.5C 207.048,59.7266 205.714,60.3933 201.5,53.5C 201.011,52.0048 200.345,50.6715 199.5,49.5C 199.249,45.7512 198.583,42.0845 197.5,38.5C 197.369,37.6236 197.702,36.9569 198.5,36.5C 199.15,38.1836 200.15,39.5169 201.5,40.5 Z"/></g>
<g><path style="opacity:1" fill="#c9973e" d="M 225.5,55.5 C 225.664,58.8174 226.664,61.8174 228.5,64.5C 227.18,63.0582 225.514,62.3915 223.5,62.5C 223.721,67.5995 225.555,71.9328 229,75.5C 229.633,79.4087 230.799,83.0753 232.5,86.5C 231.728,85.3065 230.728,84.3065 229.5,83.5C 227.866,76.9104 225.199,70.9104 221.5,65.5C 221.5,64.8333 221.5,64.1667 221.5,63.5C 219.36,60.2029 218.027,56.5362 217.5,52.5C 217.722,49.9236 219.055,49.0902 221.5,50C 222.032,52.4632 223.366,54.2965 225.5,55.5 Z"/></g>
<g><path style="opacity:1" fill="#9d3a0a" d="M 261.5,62.5 C 260.833,61.5 260.167,60.5 259.5,59.5C 259.5,59.1667 259.5,58.8333 259.5,58.5C 259.5,57.8333 259.5,57.1667 259.5,56.5C 259.5,54.5 259.5,52.5 259.5,50.5C 261.5,50.5 263.5,50.5 265.5,50.5C 265.662,52.5273 265.495,54.5273 265,56.5C 264.261,58.8888 263.095,60.8888 261.5,62.5 Z"/></g>
<g><path style="opacity:1" fill="#c4610f" d="M 201.5,56.5 C 202.939,58.588 203.606,60.9214 203.5,63.5C 203.167,63.5 202.833,63.5 202.5,63.5C 202.167,63.5 201.833,63.5 201.5,63.5C 200.432,62.5655 199.099,62.2322 197.5,62.5C 196.951,58.779 196.451,55.1123 196,51.5C 196.333,51.1667 196.667,50.8333 197,50.5C 198.756,52.4072 200.256,54.4072 201.5,56.5 Z"/></g>
<g><path style="opacity:1" fill="#ad5f11" d="M 287.5,42.5 C 284.442,45.9485 282.442,49.9485 281.5,54.5C 282.833,54.5 284.167,54.5 285.5,54.5C 284.811,57.1894 283.144,58.8561 280.5,59.5C 279.469,58.7515 278.302,58.0848 277,57.5C 274.833,59.6667 272.667,61.8333 270.5,64C 267.881,63.9167 265.214,63.75 262.5,63.5C 261.833,63.5 261.5,63.1667 261.5,62.5C 263.095,60.8888 264.261,58.8888 265,56.5C 265.495,54.5273 265.662,52.5273 265.5,50.5C 263.5,50.5 261.5,50.5 259.5,50.5C 259.5,52.5 259.5,54.5 259.5,56.5C 258.523,53.7131 258.19,50.7131 258.5,47.5C 262.176,46.6629 265.676,45.3296 269,43.5C 269.258,47.9043 268.758,52.2376 267.5,56.5C 268.873,56.6567 270.207,56.49 271.5,56C 272.851,52.805 275.185,50.9717 278.5,50.5C 278.5,49.5 278.5,48.5 278.5,47.5C 281.187,46.3362 283.52,44.5029 285.5,42C 286.437,41.3083 287.103,41.475 287.5,42.5 Z"/></g>
<g><path style="opacity:1" fill="#daae56" d="M 205.5,51.5 C 206.117,51.6107 206.617,51.944 207,52.5C 207.633,56.3474 208.467,60.014 209.5,63.5C 212.031,65.9661 212.864,68.9661 212,72.5C 210.065,70.8056 208.231,69.1389 206.5,67.5C 206.262,65.5956 205.262,64.2623 203.5,63.5C 203.606,60.9214 202.939,58.588 201.5,56.5C 201.5,55.5 201.5,54.5 201.5,53.5C 205.714,60.3933 207.048,59.7266 205.5,51.5 Z"/></g>
<g><path style="opacity:1" fill="#cda348" d="M 315.5,57.5 C 315.5,58.5 315.5,59.5 315.5,60.5C 310.975,60.262 307.309,61.9287 304.5,65.5C 304.518,62.8157 304.518,60.149 304.5,57.5C 305.791,57.7373 306.791,57.404 307.5,56.5C 308.416,56.0183 309.416,55.685 310.5,55.5C 312.177,56.1869 313.844,56.8535 315.5,57.5 Z"/></g>
<g><path style="opacity:1" fill="#d0a049" d="M 285.5,54.5 C 286.675,54.281 287.675,54.6143 288.5,55.5C 286.995,57.5038 285.328,59.3371 283.5,61C 283.046,63.4223 282.879,65.9223 283,68.5C 280.695,70.9305 277.862,71.9305 274.5,71.5C 274.107,68.4867 274.774,65.8201 276.5,63.5C 277.833,62.1667 279.167,60.8333 280.5,59.5C 283.144,58.8561 284.811,57.1894 285.5,54.5 Z"/></g>
<g><path style="opacity:1" fill="#c18626" d="M 222.5,48.5 C 224.075,50.5475 225.075,52.8808 225.5,55.5C 223.366,54.2965 222.032,52.4632 221.5,50C 219.055,49.0902 217.722,49.9236 217.5,52.5C 216.5,52.5 215.5,52.5 214.5,52.5C 214.335,55.8499 214.502,59.1832 215,62.5C 218.162,68.4772 218.329,74.4772 215.5,80.5C 213.833,79.1667 212.167,77.8333 210.5,76.5C 210.5,75.8333 210.167,75.5 209.5,75.5C 208.552,72.8598 207.552,70.1931 206.5,67.5C 208.231,69.1389 210.065,70.8056 212,72.5C 212.864,68.9661 212.031,65.9661 209.5,63.5C 210.639,57.5642 211.306,51.5642 211.5,45.5C 214.482,45.0371 217.482,44.7038 220.5,44.5C 220.157,46.4832 220.824,47.8166 222.5,48.5 Z"/></g>
<g><path style="opacity:1" fill="#ba8329" d="M 225.5,55.5 C 227.433,57.9374 229.6,60.2707 232,62.5C 234.63,67.2953 237.463,71.9619 240.5,76.5C 241.582,77.5938 242.248,78.9271 242.5,80.5C 241.724,84.1588 241.057,87.8255 240.5,91.5C 238.167,91.5 235.833,91.5 233.5,91.5C 233.5,91.1667 233.5,90.8333 233.5,90.5C 233.5,90.1667 233.5,89.8333 233.5,89.5C 234.583,89.4606 235.583,89.1272 236.5,88.5C 237.652,85.8938 237.818,83.2272 237,80.5C 235.476,74.452 232.643,69.1187 228.5,64.5C 226.664,61.8174 225.664,58.8174 225.5,55.5 Z"/></g>
<g><path style="opacity:1" fill="#913c0c" d="M 280.5,59.5 C 279.167,60.8333 277.833,62.1667 276.5,63.5C 274.574,64.2423 272.741,65.2423 271,66.5C 267.63,73.014 269.464,76.3473 276.5,76.5C 275.21,77.9348 273.544,78.9348 271.5,79.5C 270.933,81.9823 270.266,84.3157 269.5,86.5C 268.393,84.1534 266.726,83.82 264.5,85.5C 263.964,78.1531 263.297,70.8198 262.5,63.5C 265.214,63.75 267.881,63.9167 270.5,64C 272.667,61.8333 274.833,59.6667 277,57.5C 278.302,58.0848 279.469,58.7515 280.5,59.5 Z"/></g>
<g><path style="opacity:1" fill="#d1aa57" d="M 228.5,64.5 C 232.643,69.1187 235.476,74.452 237,80.5C 237.818,83.2272 237.652,85.8938 236.5,88.5C 235.583,89.1272 234.583,89.4606 233.5,89.5C 233.443,88.391 233.11,87.391 232.5,86.5C 230.799,83.0753 229.633,79.4087 229,75.5C 225.555,71.9328 223.721,67.5995 223.5,62.5C 225.514,62.3915 227.18,63.0582 228.5,64.5 Z"/></g>
<g><path style="opacity:1" fill="#b38143" d="M 313.5,66.5 C 313.5,66.8333 313.5,67.1667 313.5,67.5C 310.445,68.0362 307.445,68.8695 304.5,70C 303.058,70.3768 302.058,71.2101 301.5,72.5C 299.973,72.427 298.973,73.0937 298.5,74.5C 298.167,74.5 297.833,74.5 297.5,74.5C 297.5,74.1667 297.5,73.8333 297.5,73.5C 301.369,68.2283 306.702,65.895 313.5,66.5 Z"/></g>
<g><path style="opacity:1" fill="#a0540e" d="M 297.5,73.5 C 297.5,73.8333 297.5,74.1667 297.5,74.5C 296.833,74.8333 296.167,75.1667 295.5,75.5C 293.486,75.3915 291.82,76.0582 290.5,77.5C 289.041,77.5674 287.708,77.2341 286.5,76.5C 284.167,75.1667 281.833,75.1667 279.5,76.5C 278.833,76.5 278.167,76.5 277.5,76.5C 278.975,74.5905 280.975,73.4238 283.5,73C 286.022,70.4782 288.522,67.9782 291,65.5C 291.772,65.6448 292.439,65.9781 293,66.5C 293.497,68.8098 293.663,71.1432 293.5,73.5C 294.833,73.5 296.167,73.5 297.5,73.5 Z"/></g>
<g><path style="opacity:1" fill="#b16926" d="M 221.5,65.5 C 225.199,70.9104 227.866,76.9104 229.5,83.5C 228.542,83.0472 227.708,82.3805 227,81.5C 226.76,79.1484 225.927,77.1484 224.5,75.5C 222.708,72.4541 221.708,69.1207 221.5,65.5 Z"/></g>
<g><path style="opacity:0.008" fill="#e4d4b9" d="M 313.5,67.5 C 313.063,69.0744 312.063,70.2411 310.5,71C 306.689,72.0699 303.356,73.9033 300.5,76.5C 300.833,75.1667 301.167,73.8333 301.5,72.5C 302.058,71.2101 303.058,70.3768 304.5,70C 307.445,68.8695 310.445,68.0362 313.5,67.5 Z"/></g>
<g><path style="opacity:1" fill="#bb862c" d="M 255.5,44.5 C 256.222,44.9175 256.722,45.5842 257,46.5C 257.333,50.1667 257.667,53.8333 258,57.5C 258.383,58.056 258.883,58.3893 259.5,58.5C 259.5,58.8333 259.5,59.1667 259.5,59.5C 259.958,62.3938 259.291,64.8938 257.5,67C 258.34,68.6665 257.84,68.8331 256,67.5C 254.965,70.6489 255.632,73.3156 258,75.5C 258.824,78.8823 258.657,82.2156 257.5,85.5C 256.113,83.79 254.779,82.1233 253.5,80.5C 253.176,75.5297 251.843,70.8631 249.5,66.5C 249.443,65.391 249.11,64.391 248.5,63.5C 250.074,63.9371 251.241,64.9371 252,66.5C 251.709,61.856 251.709,57.1893 252,52.5C 254.942,50.672 256.109,48.0053 255.5,44.5 Z"/></g>
<g><path style="opacity:0.996" fill="#da6964" d="M 201.5,63.5 C 201.833,63.5 202.167,63.5 202.5,63.5C 202.497,68.5275 202.164,73.5275 201.5,78.5C 201.167,78.5 200.833,78.5 200.5,78.5C 200.5,75.8333 200.5,73.1667 200.5,70.5C 201.468,68.3926 201.802,66.0593 201.5,63.5 Z"/></g>
<g><path style="opacity:1" fill="#ae6714" d="M 217.5,52.5 C 218.027,56.5362 219.36,60.2029 221.5,63.5C 219.112,62.7813 217.612,61.1146 217,58.5C 216.833,59.1667 216.667,59.8333 216.5,60.5C 220.043,67.4285 221.543,74.7618 221,82.5C 219.989,83.3366 218.822,83.67 217.5,83.5C 217.5,82.8333 217.167,82.5 216.5,82.5C 216.167,81.8333 215.833,81.1667 215.5,80.5C 218.329,74.4772 218.162,68.4772 215,62.5C 214.502,59.1832 214.335,55.8499 214.5,52.5C 215.5,52.5 216.5,52.5 217.5,52.5 Z"/></g>
<g><path style="opacity:1" fill="#9b5512" d="M 244.5,60.5 C 245.5,60.5 246.5,60.5 247.5,60.5C 245.871,62.1959 246.204,63.1959 248.5,63.5C 249.11,64.391 249.443,65.391 249.5,66.5C 248.883,66.3893 248.383,66.056 248,65.5C 247.183,69.786 247.85,73.786 250,77.5C 250.667,80.5 250.667,83.5 250,86.5C 247.022,86.9806 245.189,88.6472 244.5,91.5C 243.209,91.2627 242.209,91.596 241.5,92.5C 241.167,92.5 240.833,92.5 240.5,92.5C 238.167,92.5 235.833,92.5 233.5,92.5C 233.5,92.1667 233.5,91.8333 233.5,91.5C 235.833,91.5 238.167,91.5 240.5,91.5C 241.057,87.8255 241.724,84.1588 242.5,80.5C 242.248,78.9271 241.582,77.5938 240.5,76.5C 241.672,74.1231 241.339,71.7898 239.5,69.5C 240.5,69.5 241.5,69.5 242.5,69.5C 242.928,66.4359 243.594,63.4359 244.5,60.5 Z"/></g>
<g><path style="opacity:0.256" fill="#d1c1be" d="M 200.5,70.5 C 200.5,73.1667 200.5,75.8333 200.5,78.5C 200.5,79.8333 200.5,81.1667 200.5,82.5C 199.111,87.2688 198.444,92.2688 198.5,97.5C 197.732,98.2625 197.232,99.2625 197,100.5C 196.5,88.5046 196.333,76.5046 196.5,64.5C 197.833,64.5 199.167,64.5 200.5,64.5C 200.5,66.5 200.5,68.5 200.5,70.5 Z"/></g>
<g><path style="opacity:1" fill="#de3a30" d="M 202.5,63.5 C 202.833,63.5 203.167,63.5 203.5,63.5C 205.262,64.2623 206.262,65.5956 206.5,67.5C 207.552,70.1931 208.552,72.8598 209.5,75.5C 207.619,82.307 206.285,89.307 205.5,96.5C 204.691,98.2922 204.191,100.292 204,102.5C 202.615,103.551 201.615,104.884 201,106.5C 200.999,97.1764 201.165,87.8431 201.5,78.5C 202.164,73.5275 202.497,68.5275 202.5,63.5 Z"/></g>
<g><path style="opacity:1" fill="#a16416" d="M 259.5,59.5 C 260.167,60.5 260.833,61.5 261.5,62.5C 261.5,63.1667 261.833,63.5 262.5,63.5C 263.297,70.8198 263.964,78.1531 264.5,85.5C 263.5,85.8333 262.833,86.5 262.5,87.5C 261.391,87.5569 260.391,87.8902 259.5,88.5C 255.12,87.7764 253.12,85.1097 253.5,80.5C 254.779,82.1233 256.113,83.79 257.5,85.5C 258.657,82.2156 258.824,78.8823 258,75.5C 255.632,73.3156 254.965,70.6489 256,67.5C 257.84,68.8331 258.34,68.6665 257.5,67C 259.291,64.8938 259.958,62.3938 259.5,59.5 Z"/></g>
<g><path style="opacity:1" fill="#81280f" d="M 224.5,75.5 C 225.927,77.1484 226.76,79.1484 227,81.5C 227.708,82.3805 228.542,83.0472 229.5,83.5C 230.728,84.3065 231.728,85.3065 232.5,86.5C 233.11,87.391 233.443,88.391 233.5,89.5C 233.5,89.8333 233.5,90.1667 233.5,90.5C 233.167,90.5 232.833,90.5 232.5,90.5C 229.837,89.2479 227.17,88.2479 224.5,87.5C 225.097,87.2648 225.43,86.7648 225.5,86C 223.763,82.3105 222.93,78.4771 223,74.5C 223.383,75.056 223.883,75.3893 224.5,75.5 Z"/></g>
<g><path style="opacity:1" fill="#857972" d="M 282.5,90.5 C 281.566,91.5676 281.232,92.901 281.5,94.5C 279.636,95.9784 278.303,97.9784 277.5,100.5C 277.167,99 276.833,97.5 276.5,96C 278.629,90.3615 280.129,84.5282 281,78.5C 282.011,77.6634 283.178,77.33 284.5,77.5C 284.252,81.9062 283.585,86.2396 282.5,90.5 Z"/></g>
<g><path style="opacity:1" fill="#9a450e" d="M 221.5,63.5 C 221.5,64.1667 221.5,64.8333 221.5,65.5C 221.708,69.1207 222.708,72.4541 224.5,75.5C 223.883,75.3893 223.383,75.056 223,74.5C 222.93,78.4771 223.763,82.3105 225.5,86C 225.43,86.7648 225.097,87.2648 224.5,87.5C 224.167,87.5 223.833,87.5 223.5,87.5C 221.5,86.1667 219.5,84.8333 217.5,83.5C 218.822,83.67 219.989,83.3366 221,82.5C 221.543,74.7618 220.043,67.4285 216.5,60.5C 216.667,59.8333 216.833,59.1667 217,58.5C 217.612,61.1146 219.112,62.7813 221.5,63.5 Z"/></g>
<g><path style="opacity:1" fill="#85370b" d="M 249.5,66.5 C 251.843,70.8631 253.176,75.5297 253.5,80.5C 253.12,85.1097 255.12,87.7764 259.5,88.5C 259.167,89.1667 258.833,89.8333 258.5,90.5C 255.794,90.5751 253.127,90.9084 250.5,91.5C 248.5,91.5 246.5,91.5 244.5,91.5C 245.189,88.6472 247.022,86.9806 250,86.5C 250.667,83.5 250.667,80.5 250,77.5C 247.85,73.786 247.183,69.786 248,65.5C 248.383,66.056 248.883,66.3893 249.5,66.5 Z"/></g>
<g><path style="opacity:0.873" fill="#ea807f" d="M 185.5,60.5 C 186.167,60.8333 186.833,61.1667 187.5,61.5C 187.5,80.1667 187.5,98.8333 187.5,117.5C 186.508,117.672 185.842,117.338 185.5,116.5C 185.88,98.008 185.88,79.3414 185.5,60.5 Z"/></g>
<g><path style="opacity:1" fill="#897c76" d="M 269.5,86.5 C 269.5,87.1667 269.5,87.8333 269.5,88.5C 266.901,92.6795 265.568,97.3462 265.5,102.5C 263.371,108.941 262.038,115.607 261.5,122.5C 260.232,124.905 259.565,127.572 259.5,130.5C 257.045,134.734 255.711,139.4 255.5,144.5C 254.291,150.548 252.958,156.548 251.5,162.5C 251.167,162.5 250.833,162.5 250.5,162.5C 250.39,157.134 251.557,152.134 254,147.5C 254.216,139.59 255.049,131.757 256.5,124C 256.349,121.803 256.015,119.636 255.5,117.5C 255.728,115.603 256.728,114.27 258.5,113.5C 257.516,111.402 257.849,109.402 259.5,107.5C 258.622,105.252 258.955,103.085 260.5,101C 260.043,100.586 259.709,100.086 259.5,99.5C 261.184,96.3876 261.85,93.0543 261.5,89.5C 261.833,88.8333 262.167,88.1667 262.5,87.5C 262.833,86.5 263.5,85.8333 264.5,85.5C 266.726,83.82 268.393,84.1534 269.5,86.5 Z"/></g>
<g><path style="opacity:1" fill="#8b1c13" d="M 276.5,76.5 C 276.833,76.5 277.167,76.5 277.5,76.5C 278.167,76.5 278.833,76.5 279.5,76.5C 276.659,86.3683 274.326,96.3683 272.5,106.5C 270.276,112.651 268.276,118.984 266.5,125.5C 264.864,126.749 263.697,128.416 263,130.5C 261.625,128.063 261.125,125.397 261.5,122.5C 262.038,115.607 263.371,108.941 265.5,102.5C 267.252,98.0597 268.585,93.393 269.5,88.5C 269.5,87.8333 269.5,87.1667 269.5,86.5C 270.266,84.3157 270.933,81.9823 271.5,79.5C 273.544,78.9348 275.21,77.9348 276.5,76.5 Z"/></g>
<g><path style="opacity:1" fill="#f55148" d="M 191.5,64.5 C 192.5,64.5 193.5,64.5 194.5,64.5C 194.667,80.5035 194.5,96.5035 194,112.5C 193.809,114.708 193.309,116.708 192.5,118.5C 192.167,118.5 191.833,118.5 191.5,118.5C 191.5,100.5 191.5,82.5 191.5,64.5 Z"/></g>
<g><path style="opacity:1" fill="#ca847f" d="M 216.5,83.5 C 216.5,86.1667 216.5,88.8333 216.5,91.5C 215.663,96.1959 214.663,100.863 213.5,105.5C 213.696,97.9226 214.696,90.5892 216.5,83.5 Z"/></g>
<g><path style="opacity:1" fill="#aba7a4" d="M 230.5,101.5 C 230.384,104.86 230.051,108.193 229.5,111.5C 228.732,112.263 228.232,113.263 228,114.5C 226.169,127.472 224.669,140.472 223.5,153.5C 222.655,154.671 221.989,156.005 221.5,157.5C 220.193,158.153 218.86,158.82 217.5,159.5C 217.167,158.167 216.833,156.833 216.5,155.5C 217.912,146.539 218.912,137.539 219.5,128.5C 220.162,124.534 220.495,120.534 220.5,116.5C 220.5,116.167 220.5,115.833 220.5,115.5C 221.972,111.081 222.638,106.414 222.5,101.5C 223.429,98.3246 224.262,94.9913 225,91.5C 226.458,90.2532 227.958,90.2532 229.5,91.5C 230.487,94.7683 230.82,98.1016 230.5,101.5 Z"/></g>
<g><path style="opacity:1" fill="#af8782" d="M 223.5,87.5 C 223.833,87.5 224.167,87.5 224.5,87.5C 227.17,88.2479 229.837,89.2479 232.5,90.5C 232.57,94.4248 231.903,98.0915 230.5,101.5C 230.82,98.1016 230.487,94.7683 229.5,91.5C 227.958,90.2532 226.458,90.2532 225,91.5C 224.262,94.9913 223.429,98.3246 222.5,101.5C 222.669,96.8189 223.002,92.1522 223.5,87.5 Z"/></g>
<g><path style="opacity:1" fill="#cc332a" d="M 216.5,82.5 C 217.167,82.5 217.5,82.8333 217.5,83.5C 219.5,84.8333 221.5,86.1667 223.5,87.5C 223.002,92.1522 222.669,96.8189 222.5,101.5C 221.833,101.5 221.5,101.833 221.5,102.5C 220.71,103.609 220.21,104.942 220,106.5C 217.421,104.079 216.587,104.579 217.5,108C 217.37,109.059 216.87,109.892 216,110.5C 215.766,104.167 215.932,97.8338 216.5,91.5C 216.5,88.8333 216.5,86.1667 216.5,83.5C 216.5,83.1667 216.5,82.8333 216.5,82.5 Z"/></g>
<g><path style="opacity:1" fill="#8b4d46" d="M 269.5,88.5 C 268.585,93.393 267.252,98.0597 265.5,102.5C 265.568,97.3462 266.901,92.6795 269.5,88.5 Z"/></g>
<g><path style="opacity:1" fill="#958e8a" d="M 261.5,89.5 C 261.85,93.0543 261.184,96.3876 259.5,99.5C 259.709,100.086 260.043,100.586 260.5,101C 258.955,103.085 258.622,105.252 259.5,107.5C 257.849,109.402 257.516,111.402 258.5,113.5C 256.728,114.27 255.728,115.603 255.5,117.5C 256.015,119.636 256.349,121.803 256.5,124C 255.049,131.757 254.216,139.59 254,147.5C 251.557,152.134 250.39,157.134 250.5,162.5C 249.578,166.112 248.911,169.779 248.5,173.5C 248.167,173.5 247.833,173.5 247.5,173.5C 247.082,172.778 246.416,172.278 245.5,172C 237.351,170.535 229.351,169.035 221.5,167.5C 223.833,167.5 226.167,167.5 228.5,167.5C 230.196,156.8 231.863,146.133 233.5,135.5C 234.222,135.082 234.722,134.416 235,133.5C 235.497,130.854 235.664,128.187 235.5,125.5C 237.776,119.845 238.776,113.845 238.5,107.5C 240.217,104.155 240.884,100.489 240.5,96.5C 240.5,95.1667 240.5,93.8333 240.5,92.5C 240.833,92.5 241.167,92.5 241.5,92.5C 244.167,92.5 246.833,92.5 249.5,92.5C 249.384,95.8599 249.051,99.1933 248.5,102.5C 245.882,112.255 243.882,122.255 242.5,132.5C 240.672,141.778 239.006,151.112 237.5,160.5C 235.882,163.171 235.215,166.171 235.5,169.5C 237.833,169.5 240.167,169.5 242.5,169.5C 242.5,168.167 242.5,166.833 242.5,165.5C 243.117,165.389 243.617,165.056 244,164.5C 246.419,154.575 248.252,144.575 249.5,134.5C 249.259,132.102 249.926,130.102 251.5,128.5C 254.833,115.5 258.167,102.5 261.5,89.5 Z"/></g>
<g><path style="opacity:1" fill="#947369" d="M 295.5,75.5 C 289.791,92.0028 283.624,108.336 277,124.5C 276.51,123.207 276.343,121.873 276.5,120.5C 280.407,105.853 285.074,91.5197 290.5,77.5C 291.82,76.0582 293.486,75.3915 295.5,75.5 Z"/></g>
<g><path style="opacity:1" fill="#de4943" d="M 200.5,78.5 C 200.833,78.5 201.167,78.5 201.5,78.5C 201.165,87.8431 200.999,97.1764 201,106.5C 201.615,104.884 202.615,103.551 204,102.5C 204.191,100.292 204.691,98.2922 205.5,96.5C 205.097,103.862 204.43,111.195 203.5,118.5C 202.093,121.039 200.927,120.706 200,117.5C 199.501,113.848 199.335,110.182 199.5,106.5C 199.644,98.4903 199.977,90.4903 200.5,82.5C 200.5,81.1667 200.5,79.8333 200.5,78.5 Z"/></g>
<g><path style="opacity:1" fill="#895f56" d="M 286.5,76.5 C 286.15,81.5395 284.816,86.2062 282.5,90.5C 283.585,86.2396 284.252,81.9062 284.5,77.5C 283.178,77.33 282.011,77.6634 281,78.5C 280.129,84.5282 278.629,90.3615 276.5,96C 276.833,97.5 277.167,99 277.5,100.5C 278.303,97.9784 279.636,95.9784 281.5,94.5C 280.126,99.3679 278.459,104.035 276.5,108.5C 276.62,101.871 275.287,101.205 272.5,106.5C 274.326,96.3683 276.659,86.3683 279.5,76.5C 281.833,75.1667 284.167,75.1667 286.5,76.5 Z"/></g>
<g><path style="opacity:0.413" fill="#f2aeac" d="M 184.5,59.5 C 185.167,59.5 185.5,59.8333 185.5,60.5C 185.88,79.3414 185.88,98.008 185.5,116.5C 185.167,116.5 184.833,116.5 184.5,116.5C 183.79,107.681 183.79,98.8475 184.5,90C 183.818,82.5307 183.151,75.0307 182.5,67.5C 183.127,66.5832 183.461,65.5832 183.5,64.5C 183.216,62.5853 183.549,60.9187 184.5,59.5 Z"/></g>
<g><path style="opacity:1" fill="#b1231c" d="M 233.5,92.5 C 235.833,92.5 238.167,92.5 240.5,92.5C 240.5,93.8333 240.5,95.1667 240.5,96.5C 238.96,98.8383 238.294,101.505 238.5,104.5C 237.123,107.353 235.956,110.353 235,113.5C 234.792,117.918 234.126,122.251 233,126.5C 232.04,124.02 231.207,121.52 230.5,119C 231.308,118.692 231.975,118.192 232.5,117.5C 231.607,114.916 231.274,112.249 231.5,109.5C 232.275,103.847 232.942,98.1803 233.5,92.5 Z"/></g>
<g><path style="opacity:1" fill="#915149" d="M 241.5,92.5 C 242.209,91.596 243.209,91.2627 244.5,91.5C 246.5,91.5 248.5,91.5 250.5,91.5C 250.884,95.4885 250.217,99.1552 248.5,102.5C 249.051,99.1933 249.384,95.8599 249.5,92.5C 246.833,92.5 244.167,92.5 241.5,92.5 Z"/></g>
<g><path style="opacity:0.932" fill="#171413" d="M 0.5,102.5 C 7.83333,102.5 15.1667,102.5 22.5,102.5C 24.3854,112.045 26.8854,121.378 30,130.5C 32.4862,121.223 34.6528,111.89 36.5,102.5C 44.1667,102.5 51.8333,102.5 59.5,102.5C 59.5,119.833 59.5,137.167 59.5,154.5C 54.8333,154.5 50.1667,154.5 45.5,154.5C 45.6665,142.829 45.4999,131.162 45,119.5C 42.0039,131.15 39.1706,142.817 36.5,154.5C 31.8333,154.5 27.1667,154.5 22.5,154.5C 20.3194,143.776 17.8194,133.11 15,122.5C 14.5002,133.161 14.3335,143.828 14.5,154.5C 9.83333,154.5 5.16667,154.5 0.5,154.5C 0.5,137.167 0.5,119.833 0.5,102.5 Z"/></g>
<g><path style="opacity:0.933" fill="#db1312" d="M 309.5,104.5 C 321.145,102.067 330.978,105.067 339,113.5C 340.707,115.909 341.54,118.575 341.5,121.5C 337.291,121.841 333.125,122.508 329,123.5C 326.733,122.825 325.233,121.325 324.5,119C 317.453,115.226 312.287,117.06 309,124.5C 307.919,131.054 308.586,137.388 311,143.5C 314.714,146.07 318.548,146.57 322.5,145C 325.099,142.254 327.433,139.421 329.5,136.5C 333.725,137.742 337.891,139.075 342,140.5C 341.292,147.067 338.125,152.234 332.5,156C 304.147,164.263 290.647,153.763 292,124.5C 293.803,114.203 299.636,107.537 309.5,104.5 Z"/></g>
<g><path style="opacity:1" fill="#8c2921" d="M 286.5,76.5 C 287.708,77.2341 289.041,77.5674 290.5,77.5C 285.074,91.5197 280.407,105.853 276.5,120.5C 273.395,127.185 270.729,134.185 268.5,141.5C 267.897,139.374 267.897,137.041 268.5,134.5C 271.358,125.924 274.025,117.257 276.5,108.5C 278.459,104.035 280.126,99.3679 281.5,94.5C 281.232,92.901 281.566,91.5676 282.5,90.5C 284.816,86.2062 286.15,81.5395 286.5,76.5 Z"/></g>
<g><path style="opacity:0.953" fill="#db1312" d="M 348.5,105.5 C 353.5,105.5 358.5,105.5 363.5,105.5C 363.334,111.509 363.501,117.509 364,123.5C 365.579,121.959 367.413,120.792 369.5,120C 373.5,119.333 377.5,119.333 381.5,120C 384.728,121.563 386.895,124.063 388,127.5C 388.5,137.494 388.666,147.494 388.5,157.5C 383.5,157.5 378.5,157.5 373.5,157.5C 373.666,149.493 373.5,141.493 373,133.5C 369.147,129.778 366.147,130.444 364,135.5C 363.5,142.826 363.334,150.159 363.5,157.5C 358.5,157.5 353.5,157.5 348.5,157.5C 348.5,140.167 348.5,122.833 348.5,105.5 Z"/></g>
<g><path style="opacity:1" fill="#a8605b" d="M 240.5,96.5 C 240.884,100.489 240.217,104.155 238.5,107.5C 238.5,106.5 238.5,105.5 238.5,104.5C 238.294,101.505 238.96,98.8383 240.5,96.5 Z"/></g>
<g><path style="opacity:1" fill="#ecbcba" d="M 187.5,61.5 C 188.833,62.5 190.167,63.5 191.5,64.5C 191.5,82.5 191.5,100.5 191.5,118.5C 190.292,117.766 188.959,117.433 187.5,117.5C 187.5,98.8333 187.5,80.1667 187.5,61.5 Z"/></g>
<g><path style="opacity:1" fill="#c07873" d="M 222.5,101.5 C 222.638,106.414 221.972,111.081 220.5,115.5C 220.586,111.143 220.92,106.81 221.5,102.5C 221.5,101.833 221.833,101.5 222.5,101.5 Z"/></g>
<g><path style="opacity:1" fill="#b35650" d="M 232.5,90.5 C 232.833,90.5 233.167,90.5 233.5,90.5C 233.5,90.8333 233.5,91.1667 233.5,91.5C 233.5,91.8333 233.5,92.1667 233.5,92.5C 232.942,98.1803 232.275,103.847 231.5,109.5C 230.833,111.5 230.167,113.5 229.5,115.5C 229.5,114.167 229.5,112.833 229.5,111.5C 230.051,108.193 230.384,104.86 230.5,101.5C 231.903,98.0915 232.57,94.4248 232.5,90.5 Z"/></g>
<g><path style="opacity:1" fill="#9a221b" d="M 258.5,90.5 C 256.145,103.193 253.811,115.859 251.5,128.5C 249.926,130.102 249.259,132.102 249.5,134.5C 246.409,144.54 244.076,154.874 242.5,165.5C 241.596,166.209 241.263,167.209 241.5,168.5C 239.833,168.5 238.167,168.5 236.5,168.5C 236.833,165.833 237.167,163.167 237.5,160.5C 239.006,151.112 240.672,141.778 242.5,132.5C 245.885,122.911 247.885,112.911 248.5,102.5C 250.217,99.1552 250.884,95.4885 250.5,91.5C 253.127,90.9084 255.794,90.5751 258.5,90.5 Z"/></g>
<g><path style="opacity:1" fill="#9d4f4a" d="M 248.5,102.5 C 247.885,112.911 245.885,122.911 242.5,132.5C 243.882,122.255 245.882,112.255 248.5,102.5 Z"/></g>
<g><path style="opacity:1" fill="#92615b" d="M 262.5,87.5 C 262.167,88.1667 261.833,88.8333 261.5,89.5C 258.167,102.5 254.833,115.5 251.5,128.5C 253.811,115.859 256.145,103.193 258.5,90.5C 258.833,89.8333 259.167,89.1667 259.5,88.5C 260.391,87.8902 261.391,87.5569 262.5,87.5 Z"/></g>
<g><path style="opacity:0.885" fill="#de8580" d="M 194.5,64.5 C 194.833,64.5 195.167,64.5 195.5,64.5C 195.333,82.5031 195.5,100.503 196,118.5C 196.871,111.494 197.704,104.494 198.5,97.5C 198.444,92.2688 199.111,87.2688 200.5,82.5C 199.977,90.4903 199.644,98.4903 199.5,106.5C 198.335,111.633 197.668,116.966 197.5,122.5C 195.809,121.136 194.142,119.803 192.5,118.5C 193.309,116.708 193.809,114.708 194,112.5C 194.5,96.5035 194.667,80.5035 194.5,64.5 Z"/></g>
<g><path style="opacity:1" fill="#d3908c" d="M 209.5,75.5 C 210.167,75.5 210.5,75.8333 210.5,76.5C 207.848,95.3177 205.515,114.318 203.5,133.5C 203.167,133.5 202.833,133.5 202.5,133.5C 202.503,128.473 202.836,123.473 203.5,118.5C 204.43,111.195 205.097,103.862 205.5,96.5C 206.285,89.307 207.619,82.307 209.5,75.5 Z"/></g>
<g><path style="opacity:1" fill="#c0bcb9" d="M 210.5,76.5 C 212.167,77.8333 213.833,79.1667 215.5,80.5C 215.833,81.1667 216.167,81.8333 216.5,82.5C 216.5,82.8333 216.5,83.1667 216.5,83.5C 214.696,90.5892 213.696,97.9226 213.5,105.5C 213.5,106.5 213.5,107.5 213.5,108.5C 212.169,118.046 210.835,127.712 209.5,137.5C 207.984,142.172 206.151,146.839 204,151.5C 203.501,145.509 203.334,139.509 203.5,133.5C 205.515,114.318 207.848,95.3177 210.5,76.5 Z"/></g>
<g><path style="opacity:0.288" fill="#e4b2ae" d="M 201.5,63.5 C 201.802,66.0593 201.468,68.3926 200.5,70.5C 200.5,68.5 200.5,66.5 200.5,64.5C 199.167,64.5 197.833,64.5 196.5,64.5C 196.333,76.5046 196.5,88.5046 197,100.5C 197.232,99.2625 197.732,98.2625 198.5,97.5C 197.704,104.494 196.871,111.494 196,118.5C 195.5,100.503 195.333,82.5031 195.5,64.5C 197.265,63.5386 199.265,63.2053 201.5,63.5 Z"/></g>
<g><path style="opacity:1" fill="#a66f69" d="M 238.5,107.5 C 238.776,113.845 237.776,119.845 235.5,125.5C 235.716,119.245 236.716,113.245 238.5,107.5 Z"/></g>
<g><path style="opacity:0.891" fill="#171413" d="M 123.5,116.5 C 130.175,116.334 136.842,116.5 143.5,117C 148.661,118.78 151.328,122.113 151.5,127C 145.128,127.939 138.961,127.439 133,125.5C 129.552,124.939 128.385,126.106 129.5,129C 134.853,129.908 140.187,130.908 145.5,132C 154.419,137.086 155.753,143.752 149.5,152C 147.283,153.275 144.949,154.275 142.5,155C 136.167,155.667 129.833,155.667 123.5,155C 117,153.203 113.666,149.203 113.5,143C 118.533,142.171 123.533,142.338 128.5,143.5C 129.55,145.873 131.383,146.873 134,146.5C 136.348,146.742 138.182,145.908 139.5,144C 138.833,143.333 138.167,142.667 137.5,142C 131.74,141.048 126.074,139.715 120.5,138C 114.975,135.081 113.142,130.581 115,124.5C 116.73,120.57 119.564,117.903 123.5,116.5 Z"/></g>
<g><path style="opacity:0.931" fill="#181414" d="M 184.5,116.5 C 184.833,116.5 185.167,116.5 185.5,116.5C 185.842,117.338 186.508,117.672 187.5,117.5C 188.959,117.433 190.292,117.766 191.5,118.5C 191.833,118.5 192.167,118.5 192.5,118.5C 194.142,119.803 195.809,121.136 197.5,122.5C 198.279,131.453 198.779,140.453 199,149.5C 199.232,150.737 199.732,151.737 200.5,152.5C 200.5,153.167 200.5,153.833 200.5,154.5C 200.167,154.5 199.833,154.5 199.5,154.5C 198.5,154.5 197.5,154.5 196.5,154.5C 194.5,154.5 192.5,154.5 190.5,154.5C 187.654,154.191 186.154,152.525 186,149.5C 185.283,150.044 184.783,150.711 184.5,151.5C 178.433,155.35 171.767,156.517 164.5,155C 156.037,149.431 155.37,143.098 162.5,136C 169.99,134.141 177.323,131.974 184.5,129.5C 184.291,128.914 183.957,128.414 183.5,128C 179.712,126.884 176.378,127.55 173.5,130C 168.833,130.667 164.167,130.667 159.5,130C 159.233,123.228 162.566,118.895 169.5,117C 174.489,116.501 179.489,116.334 184.5,116.5 Z M 181.5,138.5 C 182.5,138.5 183.5,138.5 184.5,138.5C 184.617,140.484 183.95,142.15 182.5,143.5C 179.579,144.407 176.579,144.74 173.5,144.5C 173.33,143.178 173.663,142.011 174.5,141C 176.927,140.098 179.26,139.264 181.5,138.5 Z"/></g>
<g><path style="opacity:0.948" fill="#171413" d="M 67.5,117.5 C 72.5,117.5 77.5,117.5 82.5,117.5C 82.3336,125.507 82.5003,133.507 83,141.5C 86.805,144.539 89.805,143.872 92,139.5C 92.4997,132.174 92.6663,124.841 92.5,117.5C 97.5,117.5 102.5,117.5 107.5,117.5C 107.5,129.833 107.5,142.167 107.5,154.5C 102.833,154.5 98.1667,154.5 93.5,154.5C 93.6567,153.127 93.49,151.793 93,150.5C 87.7307,155.245 81.564,156.745 74.5,155C 72.3762,153.878 70.5429,152.378 69,150.5C 67.5688,139.578 67.0688,128.578 67.5,117.5 Z"/></g>
<g><path style="opacity:1" fill="#cc4d48" d="M 199.5,106.5 C 199.335,110.182 199.501,113.848 200,117.5C 200.927,120.706 202.093,121.039 203.5,118.5C 202.836,123.473 202.503,128.473 202.5,133.5C 202.5,134.833 202.5,136.167 202.5,137.5C 201.673,142.346 201.006,147.346 200.5,152.5C 199.732,151.737 199.232,150.737 199,149.5C 198.779,140.453 198.279,131.453 197.5,122.5C 197.668,116.966 198.335,111.633 199.5,106.5 Z"/></g>
<g><path style="opacity:1" fill="#ae7d79" d="M 229.5,111.5 C 229.5,112.833 229.5,114.167 229.5,115.5C 227.56,128.175 225.56,140.842 223.5,153.5C 224.669,140.472 226.169,127.472 228,114.5C 228.232,113.263 228.732,112.263 229.5,111.5 Z"/></g>
<g><path style="opacity:1" fill="#ab2c25" d="M 238.5,104.5 C 238.5,105.5 238.5,106.5 238.5,107.5C 236.716,113.245 235.716,119.245 235.5,125.5C 234.778,125.918 234.278,126.584 234,127.5C 233.503,130.146 233.336,132.813 233.5,135.5C 230.335,145.465 228.335,155.798 227.5,166.5C 225.856,166.714 224.356,166.38 223,165.5C 222.503,161.476 222.669,157.476 223.5,153.5C 225.56,140.842 227.56,128.175 229.5,115.5C 230.167,113.5 230.833,111.5 231.5,109.5C 231.274,112.249 231.607,114.916 232.5,117.5C 231.975,118.192 231.308,118.692 230.5,119C 231.207,121.52 232.04,124.02 233,126.5C 234.126,122.251 234.792,117.918 235,113.5C 235.956,110.353 237.123,107.353 238.5,104.5 Z"/></g>
<g><path style="opacity:0.931" fill="#db1312" d="M 409.5,119.5 C 426.094,116.108 435.76,122.608 438.5,139C 438.065,148.437 433.399,154.77 424.5,158C 416.8,159.334 409.467,158.334 402.5,155C 391.833,144.333 391.833,133.667 402.5,123C 404.925,121.787 407.259,120.621 409.5,119.5 Z M 413.5,130.5 C 419.704,129.866 423.037,132.699 423.5,139C 422.171,147.838 418.004,149.671 411,144.5C 408.97,139.293 409.804,134.626 413.5,130.5 Z"/></g>
<g><path style="opacity:0.945" fill="#db1312" d="M 464.5,119.5 C 479.086,118.083 486.419,124.75 486.5,139.5C 484.997,157.189 476.163,162.523 460,155.5C 459.501,160.823 459.334,166.156 459.5,171.5C 454.5,171.5 449.5,171.5 444.5,171.5C 444.5,154.5 444.5,137.5 444.5,120.5C 449.167,120.5 453.833,120.5 458.5,120.5C 458.343,121.873 458.51,123.207 459,124.5C 460.73,122.598 462.563,120.931 464.5,119.5 Z M 462.5,130.5 C 468.603,129.789 471.603,132.622 471.5,139C 471.843,145.665 468.843,148.332 462.5,147C 458.565,141.504 458.565,136.004 462.5,130.5 Z"/></g>
<g><path style="opacity:0.917" fill="#db1312" d="M 530.5,142.5 C 530.5,144.5 530.5,146.5 530.5,148.5C 528.285,153.207 524.618,156.373 519.5,158C 513.5,158.667 507.5,158.667 501.5,158C 495.303,156.806 491.303,153.139 489.5,147C 494.749,145.269 500.082,145.103 505.5,146.5C 509.155,151.379 512.822,151.546 516.5,147C 516.095,146.055 515.428,145.388 514.5,145C 507.134,144.288 500.301,142.121 494,138.5C 489.147,129.37 491.647,123.204 501.5,120C 507.5,119.333 513.5,119.333 519.5,120C 524.917,121.073 527.751,124.24 528,129.5C 521.365,131.222 515.032,130.555 509,127.5C 507.989,128.337 506.822,128.67 505.5,128.5C 505.33,129.822 505.663,130.989 506.5,132C 512.585,132.964 518.585,134.298 524.5,136C 526.856,137.914 528.856,140.081 530.5,142.5 Z"/></g>
<g><path style="opacity:1" fill="#c6716b" d="M 213.5,108.5 C 213.868,122.551 212.202,136.218 208.5,149.5C 208.505,145.466 208.838,141.466 209.5,137.5C 210.835,127.712 212.169,118.046 213.5,108.5 Z"/></g>
<g><path style="opacity:1" fill="#bf3a34" d="M 216.5,91.5 C 215.932,97.8338 215.766,104.167 216,110.5C 216.87,109.892 217.37,109.059 217.5,108C 216.587,104.579 217.421,104.079 220,106.5C 220.21,104.942 220.71,103.609 221.5,102.5C 220.92,106.81 220.586,111.143 220.5,115.5C 220.5,115.833 220.5,116.167 220.5,116.5C 217.701,127.532 216.035,138.865 215.5,150.5C 214.527,152.948 214.194,155.615 214.5,158.5C 213.539,160.265 213.205,162.265 213.5,164.5C 211.833,164.5 210.167,164.5 208.5,164.5C 208.5,161.167 208.5,157.833 208.5,154.5C 208.5,152.833 208.5,151.167 208.5,149.5C 212.202,136.218 213.868,122.551 213.5,108.5C 213.5,107.5 213.5,106.5 213.5,105.5C 214.663,100.863 215.663,96.1959 216.5,91.5 Z"/></g>
<g><path style="opacity:1" fill="#b96862" d="M 220.5,116.5 C 220.495,120.534 220.162,124.534 219.5,128.5C 218.074,135.819 216.74,143.152 215.5,150.5C 216.035,138.865 217.701,127.532 220.5,116.5 Z"/></g>
<g><path style="opacity:1" fill="#a66a66" d="M 235.5,125.5 C 235.664,128.187 235.497,130.854 235,133.5C 234.722,134.416 234.222,135.082 233.5,135.5C 233.336,132.813 233.503,130.146 234,127.5C 234.278,126.584 234.778,125.918 235.5,125.5 Z"/></g>
<g><path style="opacity:1" fill="#896c66" d="M 276.5,108.5 C 274.025,117.257 271.358,125.924 268.5,134.5C 267.655,135.671 266.989,137.005 266.5,138.5C 265.105,140.054 264.439,139.721 264.5,137.5C 265.156,135.547 265.489,133.547 265.5,131.5C 265.517,129.435 265.85,127.435 266.5,125.5C 268.276,118.984 270.276,112.651 272.5,106.5C 275.287,101.205 276.62,101.871 276.5,108.5 Z"/></g>
<g><path style="opacity:0.808" fill="#9b6660" d="M 297.5,74.5 C 297.833,74.5 298.167,74.5 298.5,74.5C 295.108,86.1557 290.608,97.4891 285,108.5C 281.093,122.619 276.26,136.286 270.5,149.5C 270.881,144.725 271.881,140.058 273.5,135.5C 273.333,134.833 273.167,134.167 273,133.5C 271.763,136.448 270.263,139.115 268.5,141.5C 270.729,134.185 273.395,127.185 276.5,120.5C 276.343,121.873 276.51,123.207 277,124.5C 283.624,108.336 289.791,92.0028 295.5,75.5C 296.167,75.1667 296.833,74.8333 297.5,74.5 Z"/></g>
<g><path style="opacity:1" fill="#884843" d="M 259.5,130.5 C 258.57,134.796 257.737,139.13 257,143.5C 256.617,144.056 256.117,144.389 255.5,144.5C 255.711,139.4 257.045,134.734 259.5,130.5 Z"/></g>
<g><path style="opacity:1" fill="#945e59" d="M 249.5,134.5 C 248.252,144.575 246.419,154.575 244,164.5C 243.617,165.056 243.117,165.389 242.5,165.5C 244.076,154.874 246.409,144.54 249.5,134.5 Z"/></g>
<g><path style="opacity:1" fill="#81201a" d="M 261.5,122.5 C 261.125,125.397 261.625,128.063 263,130.5C 263.697,128.416 264.864,126.749 266.5,125.5C 265.85,127.435 265.517,129.435 265.5,131.5C 260.588,144.464 256.588,157.798 253.5,171.5C 252.5,171.5 251.5,171.5 250.5,171.5C 250.704,168.482 251.037,165.482 251.5,162.5C 252.958,156.548 254.291,150.548 255.5,144.5C 256.117,144.389 256.617,144.056 257,143.5C 257.737,139.13 258.57,134.796 259.5,130.5C 259.565,127.572 260.232,124.905 261.5,122.5 Z"/></g>
<g><path style="opacity:0.037" fill="#c29d9a" d="M 301.5,72.5 C 301.167,73.8333 300.833,75.1667 300.5,76.5C 288.988,107.823 277.155,139.156 265,170.5C 263.855,171.636 262.688,172.636 261.5,173.5C 259.167,173.5 256.833,173.5 254.5,173.5C 257.491,172.629 260.491,171.629 263.5,170.5C 265.125,163.029 267.459,156.029 270.5,149.5C 276.26,136.286 281.093,122.619 285,108.5C 290.608,97.4891 295.108,86.1557 298.5,74.5C 298.973,73.0937 299.973,72.427 301.5,72.5 Z"/></g>
<g><path style="opacity:1" fill="#a0635f" d="M 233.5,135.5 C 231.863,146.133 230.196,156.8 228.5,167.5C 226.167,167.5 223.833,167.5 221.5,167.5C 221.5,164.167 221.5,160.833 221.5,157.5C 221.989,156.005 222.655,154.671 223.5,153.5C 222.669,157.476 222.503,161.476 223,165.5C 224.356,166.38 225.856,166.714 227.5,166.5C 228.335,155.798 230.335,145.465 233.5,135.5 Z"/></g>
<g><path style="opacity:1" fill="#c59b97" d="M 202.5,137.5 C 202.666,143.509 202.499,149.509 202,155.5C 201.768,156.737 201.268,157.737 200.5,158.5C 200.5,157.167 200.5,155.833 200.5,154.5C 200.5,153.833 200.5,153.167 200.5,152.5C 201.006,147.346 201.673,142.346 202.5,137.5 Z"/></g>
<g><path style="opacity:1" fill="#b0a9a6" d="M 202.5,133.5 C 202.833,133.5 203.167,133.5 203.5,133.5C 203.334,139.509 203.501,145.509 204,151.5C 206.151,146.839 207.984,142.172 209.5,137.5C 208.838,141.466 208.505,145.466 208.5,149.5C 207.778,149.918 207.278,150.584 207,151.5C 206.501,156.823 206.334,162.156 206.5,167.5C 205.167,167.167 203.833,166.833 202.5,166.5C 201.791,165.596 200.791,165.263 199.5,165.5C 200.369,163.283 200.702,160.95 200.5,158.5C 201.268,157.737 201.768,156.737 202,155.5C 202.499,149.509 202.666,143.509 202.5,137.5C 202.5,136.167 202.5,134.833 202.5,133.5 Z"/></g>
<g><path style="opacity:0.68" fill="#da9f9d" d="M 190.5,154.5 C 190.5,156.833 190.5,159.167 190.5,161.5C 188.678,159.596 187.012,157.596 185.5,155.5C 185.167,154.167 184.833,152.833 184.5,151.5C 184.783,150.711 185.283,150.044 186,149.5C 186.154,152.525 187.654,154.191 190.5,154.5 Z"/></g>
<g><path style="opacity:0.169" fill="#d7bebb" d="M 185.5,155.5 C 187.012,157.596 188.678,159.596 190.5,161.5C 191.568,162.434 192.901,162.768 194.5,162.5C 194.5,163.5 194.5,164.5 194.5,165.5C 196.167,165.5 197.833,165.5 199.5,165.5C 200.791,165.263 201.791,165.596 202.5,166.5C 197.266,167.84 192.599,166.507 188.5,162.5C 187.914,162.709 187.414,163.043 187,163.5C 185.625,161.063 185.125,158.397 185.5,155.5 Z"/></g>
<g><path style="opacity:0.996" fill="#c7746e" d="M 190.5,154.5 C 192.5,154.5 194.5,154.5 196.5,154.5C 196.5,157.5 196.5,160.5 196.5,163.5C 197.5,163.5 198.5,163.5 199.5,163.5C 199.5,160.5 199.5,157.5 199.5,154.5C 199.833,154.5 200.167,154.5 200.5,154.5C 200.5,155.833 200.5,157.167 200.5,158.5C 200.702,160.95 200.369,163.283 199.5,165.5C 197.833,165.5 196.167,165.5 194.5,165.5C 194.5,164.5 194.5,163.5 194.5,162.5C 192.901,162.768 191.568,162.434 190.5,161.5C 190.5,159.167 190.5,156.833 190.5,154.5 Z"/></g>
<g><path style="opacity:0.992" fill="#cd413a" d="M 196.5,154.5 C 197.5,154.5 198.5,154.5 199.5,154.5C 199.5,157.5 199.5,160.5 199.5,163.5C 198.5,163.5 197.5,163.5 196.5,163.5C 196.5,160.5 196.5,157.5 196.5,154.5 Z"/></g>
<g><path style="opacity:0.963" fill="#a18e8b" d="M 219.5,128.5 C 218.912,137.539 217.912,146.539 216.5,155.5C 216.833,156.833 217.167,158.167 217.5,159.5C 218.86,158.82 220.193,158.153 221.5,157.5C 221.5,160.833 221.5,164.167 221.5,167.5C 218.444,166.412 215.444,166.412 212.5,167.5C 210.5,167.5 208.5,167.5 206.5,167.5C 206.334,162.156 206.501,156.823 207,151.5C 207.278,150.584 207.778,149.918 208.5,149.5C 208.5,151.167 208.5,152.833 208.5,154.5C 207.518,157.962 207.185,161.629 207.5,165.5C 209.833,165.5 212.167,165.5 214.5,165.5C 214.5,163.167 214.5,160.833 214.5,158.5C 214.194,155.615 214.527,152.948 215.5,150.5C 216.74,143.152 218.074,135.819 219.5,128.5 Z"/></g>
<g><path style="opacity:0.859" fill="#9e5b59" d="M 208.5,154.5 C 208.5,157.833 208.5,161.167 208.5,164.5C 210.167,164.5 211.833,164.5 213.5,164.5C 213.205,162.265 213.539,160.265 214.5,158.5C 214.5,160.833 214.5,163.167 214.5,165.5C 212.167,165.5 209.833,165.5 207.5,165.5C 207.185,161.629 207.518,157.962 208.5,154.5 Z"/></g>
<g><path style="opacity:1" fill="#875f59" d="M 265.5,131.5 C 265.489,133.547 265.156,135.547 264.5,137.5C 264.439,139.721 265.105,140.054 266.5,138.5C 263.972,147.585 261.139,156.585 258,165.5C 257.202,167.259 257.369,168.926 258.5,170.5C 262.59,160.963 265.924,151.296 268.5,141.5C 270.263,139.115 271.763,136.448 273,133.5C 273.167,134.167 273.333,134.833 273.5,135.5C 271.881,140.058 270.881,144.725 270.5,149.5C 267.459,156.029 265.125,163.029 263.5,170.5C 260.491,171.629 257.491,172.629 254.5,173.5C 252.5,173.5 250.5,173.5 248.5,173.5C 248.911,169.779 249.578,166.112 250.5,162.5C 250.833,162.5 251.167,162.5 251.5,162.5C 251.037,165.482 250.704,168.482 250.5,171.5C 251.5,171.5 252.5,171.5 253.5,171.5C 256.588,157.798 260.588,144.464 265.5,131.5 Z"/></g>
<g><path style="opacity:1" fill="#82332d" d="M 268.5,134.5 C 267.897,137.041 267.897,139.374 268.5,141.5C 265.924,151.296 262.59,160.963 258.5,170.5C 257.369,168.926 257.202,167.259 258,165.5C 261.139,156.585 263.972,147.585 266.5,138.5C 266.989,137.005 267.655,135.671 268.5,134.5 Z"/></g>
<g><path style="opacity:1" fill="#944f4c" d="M 237.5,160.5 C 237.167,163.167 236.833,165.833 236.5,168.5C 238.167,168.5 239.833,168.5 241.5,168.5C 241.263,167.209 241.596,166.209 242.5,165.5C 242.5,166.833 242.5,168.167 242.5,169.5C 240.167,169.5 237.833,169.5 235.5,169.5C 235.215,166.171 235.882,163.171 237.5,160.5 Z"/></g>
<g><path style="opacity:0.045" fill="#b9b5b3" d="M 221.5,167.5 C 229.351,169.035 237.351,170.535 245.5,172C 246.416,172.278 247.082,172.778 247.5,173.5C 246.167,173.5 244.833,173.5 243.5,173.5C 233.165,171.5 222.832,169.5 212.5,167.5C 215.444,166.412 218.444,166.412 221.5,167.5 Z"/></g>
</svg>
